<svg id="eoNFjg0RKmc1" xmlns="http://www.w3.org/2000/svg" xmlns:xlink="http://www.w3.org/1999/xlink" viewBox="0 0 376.9 112.9" shape-rendering="geometricPrecision" text-rendering="geometricPrecision"><g id="eoNFjg0RKmc2"><g id="eoNFjg0RKmc3"><rect id="eoNFjg0RKmc4" width="79.8" height="79.8" rx="0" ry="0" transform="matrix(0.7071 -0.7071 0.7071 0.7071 -0.05711 56.3994)" fill="rgb(16,17,13)" stroke="none" stroke-width="1"/><rect id="eoNFjg0RKmc5" width="71.9" height="71.8" rx="0" ry="0" transform="matrix(0.7071 -0.7071 0.7071 0.7071 5.535088 56.56802)" fill="rgb(255,255,255)" stroke="none" stroke-width="1"/><rect id="eoNFjg0RKmc6" width="62.9" height="62.8" rx="0" ry="0" transform="matrix(0.7071 -0.7071 0.7071 0.7071 11.898986 56.57172)" fill="rgb(229,114,9)" stroke="none" stroke-width="1"/><polyline id="eoNFjg0RKmc7" points="65.4,87.7 65.4,25.2 33.6,57 33.1,56.4 64.8,88.2" fill="rgb(255,255,255)" stroke="none" stroke-width="1"/><rect id="eoNFjg0RKmc8" width="36.7" height="14.1" rx="0" ry="0" transform="matrix(1 0 0 1 62.7 49.4)" fill="rgb(255,255,255)" stroke="none" stroke-width="1"/><rect id="eoNFjg0RKmc9" width="47.3" height="5.7" rx="0" ry="0" transform="matrix(1 0 0 1 59.9 53.6)" fill="rgb(0,0,0)" stroke="none" stroke-width="1"/><polyline id="eoNFjg0RKmc10" points="60.6,76.9 60.6,36 39.8,56.8 39.4,56.4 60.3,77.3" fill="rgb(0,0,0)" stroke="none" stroke-width="1"/></g><g id="eoNFjg0RKmc11"><path id="eoNFjg0RKmc12" d="M150.1,62L153.5,62.7C152.8,65.1,151.5,67,149.7,68.3C147.9,69.6,145.6,70.2,143,70.2C140.3,70.2,138,69.7,136.3,68.7C134.6,67.7,133.3,66.3,132.4,64.4C131.5,62.5,131.1,60.5,131.1,58.4C131.1,56.1,131.6,54,132.6,52.3C133.6,50.6,135.1,49.2,136.9,48.3C138.8,47.4,140.8,46.9,143.1,46.9C145.7,46.9,147.8,47.5,149.5,48.6C151.2,49.7,152.5,51.3,153.1,53.4L149.8,54.1C149.2,52.5,148.4,51.3,147.2,50.5C146.1,49.8,144.7,49.4,143,49.4C141,49.4,139.4,49.8,138.1,50.6C136.8,51.4,135.9,52.5,135.3,53.9C134.7,55.3,134.5,56.7,134.5,58.2C134.5,60.1,134.8,61.8,135.4,63.2C136,64.6,137,65.7,138.3,66.4C139.6,67.1,141.1,67.5,142.6,67.5C144.5,67.5,146.1,67,147.4,66.1C148.7,65.3,149.6,63.9,150.1,62Z" fill="rgb(255,255,255)" stroke="rgb(255,255,255)" stroke-width="2"/><path id="eoNFjg0RKmc13" d="M156.6,58.9C156.6,55.2,157.7,52.3,160,50.2C162.3,48.1,165.2,47,168.8,47C171.2,47,173.3,47.5,175.2,48.5C177.1,49.5,178.5,50.9,179.5,52.6C180.5,54.3,181,56.4,181,58.6C181,60.9,180.5,62.9,179.4,64.7C178.4,66.5,176.9,67.8,175,68.8C173.1,69.8,171,70.2,168.8,70.2C166.4,70.2,164.3,69.7,162.4,68.7C160.5,67.7,159.1,66.3,158.1,64.5C157,62.7,156.6,60.9,156.6,58.9ZM160,59C160,61.7,160.8,63.8,162.5,65.4C164.2,67,166.2,67.7,168.7,67.7C171.2,67.7,173.3,66.9,175,65.3C176.6,63.7,177.5,61.5,177.5,58.6C177.5,56.8,177.1,55.2,176.4,53.8C175.7,52.4,174.7,51.4,173.3,50.6C171.9,49.9,170.4,49.5,168.8,49.5C166.4,49.5,164.4,50.2,162.6,51.7C160.8,53.2,160,55.6,160,59Z" fill="rgb(255,255,255)" stroke="rgb(255,255,255)" stroke-width="2"/><path id="eoNFjg0RKmc14" d="M185.3,69.8L185.3,47.4L188.8,47.4L202.1,65L202.1,47.4L205.3,47.4L205.3,69.8L201.8,69.8L188.4,52.2L188.4,69.8L185.3,69.8Z" fill="rgb(255,255,255)" stroke="rgb(255,255,255)" stroke-width="2"/><path id="eoNFjg0RKmc15" d="M209.9,62.6L213.1,62.4C213.3,63.5,213.6,64.4,214.2,65.2C214.8,66,215.6,66.5,216.8,66.9C218,67.3,219.3,67.6,220.7,67.6C222,67.6,223.1,67.4,224.1,67.1C225.1,66.8,225.8,66.3,226.3,65.7C226.8,65.1,227,64.5,227,63.8C227,63.1,226.8,62.5,226.3,62C225.8,61.5,225.1,61,224,60.7C223.3,60.5,221.8,60.1,219.5,59.6C217.2,59.1,215.5,58.6,214.6,58.2C213.4,57.6,212.5,56.9,211.9,56.1C211.3,55.3,211,54.3,211,53.3C211,52.2,211.4,51.1,212.1,50.1C212.8,49.1,213.9,48.4,215.3,47.9C216.7,47.4,218.3,47.1,220,47.1C221.9,47.1,223.6,47.4,225,47.9C226.4,48.4,227.6,49.2,228.3,50.3C229.1,51.3,229.5,52.5,229.6,53.8L226.4,54C226.2,52.6,225.6,51.5,224.6,50.8C223.6,50.1,222.1,49.7,220.2,49.7C218.2,49.7,216.7,50,215.7,50.7C214.8,51.4,214.3,52.1,214.3,53.1C214.3,53.9,214.6,54.6,215.3,55.1C215.9,55.6,217.6,56.2,220.4,56.7C223.1,57.2,225,57.7,226,58.1C227.5,58.7,228.6,59.5,229.3,60.4C230,61.3,230.4,62.4,230.4,63.6C230.4,64.8,230,65.9,229.2,67C228.4,68.1,227.3,68.9,225.9,69.5C224.5,70.1,222.8,70.4,221,70.4C218.7,70.4,216.8,70.1,215.2,69.5C213.6,68.9,212.4,68,211.5,66.8C210.4,65.5,209.9,64.1,209.9,62.6Z" fill="rgb(255,255,255)" stroke="rgb(255,255,255)" stroke-width="2"/><path id="eoNFjg0RKmc16" d="M241.3,69.8L241.3,50.1L232.9,50.1L232.9,47.5L253.1,47.5L253.1,50.1L244.7,50.1L244.7,69.9L241.3,69.8L241.3,69.8Z" fill="rgb(255,255,255)" stroke="rgb(255,255,255)" stroke-width="2"/><path id="eoNFjg0RKmc17" d="M256.6,69.8L256.6,47.4L267.9,47.4C270.2,47.4,271.9,47.6,273.1,48C274.3,48.4,275.2,49.1,275.9,50.1C276.6,51.1,277,52.2,277,53.5C277,55.1,276.4,56.4,275.2,57.5C274,58.6,272.2,59.3,269.8,59.6C270.7,60,271.4,60.3,271.8,60.7C272.8,61.5,273.7,62.5,274.6,63.7L279,69.8L274.8,69.8L271.4,65.1C270.4,63.8,269.6,62.7,269,62C268.4,61.3,267.8,60.8,267.3,60.5C266.8,60.2,266.3,60,265.8,59.9C265.4,59.8,264.8,59.8,263.9,59.8L260,59.8L260,69.7L256.6,69.8L256.6,69.8ZM259.9,57.3L267.2,57.3C268.7,57.3,269.9,57.2,270.8,56.9C271.7,56.6,272.3,56.2,272.8,55.6C273.3,55,273.5,54.3,273.5,53.6C273.5,52.5,273.1,51.7,272.2,51C271.3,50.3,269.9,50,268.1,50L260,50L260,57.3L259.9,57.3Z" fill="rgb(255,255,255)" stroke="rgb(255,255,255)" stroke-width="2"/><path id="eoNFjg0RKmc18" d="M299,47.4L302.4,47.4L302.4,60.3C302.4,62.6,302.1,64.3,301.5,65.7C300.9,67,299.9,68.1,298.4,68.9C296.9,69.7,294.9,70.1,292.4,70.1C290,70.1,288.1,69.7,286.5,69C285,68.3,283.9,67.2,283.2,65.9C282.6,64.5,282.2,62.7,282.2,60.3L282.2,47.4L285.6,47.4L285.6,60.3C285.6,62.2,285.8,63.7,286.2,64.6C286.6,65.5,287.3,66.2,288.3,66.7C289.3,67.2,290.5,67.4,292,67.4C294.5,67.4,296.2,66.9,297.3,65.9C298.4,64.9,298.9,63,298.9,60.2L299,47.4L299,47.4Z" fill="rgb(255,255,255)" stroke="rgb(255,255,255)" stroke-width="2"/><path id="eoNFjg0RKmc19" d="M326.2,62L329.6,62.7C328.9,65.1,327.6,67,325.8,68.3C324,69.6,321.7,70.2,319.1,70.2C316.4,70.2,314.1,69.7,312.4,68.7C310.7,67.7,309.4,66.3,308.5,64.4C307.6,62.5,307.2,60.5,307.2,58.4C307.2,56.1,307.7,54,308.7,52.3C309.7,50.6,311.2,49.2,313,48.3C314.9,47.4,316.9,46.9,319.2,46.9C321.8,46.9,323.9,47.5,325.6,48.6C327.3,49.7,328.6,51.3,329.2,53.4L325.9,54.1C325.3,52.5,324.5,51.3,323.3,50.5C322.2,49.8,320.8,49.4,319.1,49.4C317.1,49.4,315.5,49.8,314.2,50.6C312.9,51.4,312,52.5,311.4,53.9C310.8,55.3,310.6,56.7,310.6,58.2C310.6,60.1,310.9,61.8,311.5,63.2C312.1,64.6,313.1,65.7,314.4,66.4C315.7,67.1,317.2,67.5,318.7,67.5C320.6,67.5,322.2,67,323.5,66.1C324.8,65.3,325.7,63.9,326.2,62Z" fill="rgb(255,255,255)" stroke="rgb(255,255,255)" stroke-width="2"/><path id="eoNFjg0RKmc20" d="M330.9,69.8L340.7,47.4L344.3,47.4L354.7,69.8L350.9,69.8L347.9,63L337.2,63L334.4,69.8L330.9,69.8ZM338.2,60.6L346.8,60.6L344.1,54.4C343.3,52.5,342.7,51,342.3,49.8C342,51.2,341.5,52.7,340.9,54.1L338.2,60.6Z" fill="rgb(255,255,255)" stroke="rgb(255,255,255)" stroke-width="2"/><path id="eoNFjg0RKmc21" d="M357.4,69.8L357.4,47.4L367,47.4C368.7,47.4,370,47.5,370.9,47.6C372.2,47.8,373.2,48.1,374,48.6C374.8,49.1,375.5,49.8,376,50.8C376.5,51.7,376.8,52.7,376.8,53.9C376.8,55.8,376.1,57.4,374.7,58.7C373.3,60,370.8,60.7,367.2,60.7L360.7,60.7L360.7,69.8L357.4,69.8ZM360.8,58.1L367.4,58.1C369.6,58.1,371.1,57.7,372,57C372.9,56.3,373.4,55.3,373.4,54C373.4,53.1,373.1,52.3,372.6,51.6C372.1,50.9,371.4,50.5,370.5,50.3C369.9,50.2,368.9,50.1,367.4,50.1L360.9,50.1L360.9,58.1L360.8,58.1Z" fill="rgb(255,255,255)" stroke="rgb(255,255,255)" stroke-width="2"/></g></g></svg>