<?xml version="1.0" standalone="yes"?>
<svg xmlns="http://www.w3.org/2000/svg" width="200" height="62">
<path style="fill:#ffffff; stroke:none;" d="M0 0L0 62L200 62L200 0L0 0z"/>
<path style="fill:#010101; stroke:none;" d="M138 5L139 6L138 5z"/>
<path style="fill:#10458b; stroke:none;" d="M135 7L135 13L130 13L128 13L127 13L126 13L124 13.0833L123 13.25L122 13.5L120.056 14.4444L119.056 15.1944L118.5 15.5833L117 17L117 13L110 13L108 13L107 13L106 13L104 13.0278L102 13.25L101 13.5L99.0556 14.4444L98.0556 15.1944L97.5 15.5833L96 17L96 13L79 13L79 17L77.9167 15.5833L76.7222 14.4444L74.9722 13.5L74 13.25L72 13.0278L70 13L69 13L68 13L65 13L58 13L58 19L56.5278 16.9722L55.7222 16.0278L53.9722 14.5L53 13.9444L52 13.5L50 13.0833L48 13L47 13L46 13L44 13L42 13.0833L40 13.4167L39 13.7222L37.0556 14.5833L35.5 15.6111L34 17L34 12L26 12L23 12L22 12L21 12L19 12.0278L18 12.0833L16.0278 12.5L15.0833 12.9444L13.4722 14.25L12.2778 16.0278L11.4722 18L11 20L10.8333 21L10.6944 22L10.6111 24L10.6944 25L10.9167 27L10.9722 28L11 30L11 32L11 40L17 40L18 39L18 29L32 29L32 22L18 22L18.7778 20.5278L20.1111 19.2778L22 18.3333L23 18.1111L24 18.0278L25 18L27 18L29 18L34 18L33.2778 19.5L33.25 20.0556L33.0556 21.0556L33.0278 22L33 23L33 24L33 26L33 28L33.0833 30L33.5 32L33.9444 33L34.5 33.9722L36.0833 35.75L38 37.0556L39 37.5L41 37.9167L43 38L45 38L47 38L48 38L50 37.9167L52 37.5L53 37.0556L53.9722 36.5L55.6667 34.9722L56.6389 33.5L57 32L57.7222 33.5L57.75 34.0556L57.9444 35L57.9722 35.9444L58 38L65 38L65 29L73 29L73 38L79 38L79 33L79 31L79 30L78.9444 28.0278L78.8333 26.2222L78.7778 25.3889L78.8333 24.6111L78.9444 22.9167L78.9722 22.0278L79 21.0556L79 19L85 19L85 38L91 38L91 19L96 19L96 21.0556L96.0278 22.0556L96.0556 22.9722L96.1667 24.7778L96.2222 25.6111L96.1667 26.3889L96.0556 28.0833L96.0278 29.0278L96.0278 31L96.0833 32L96.5 33.9167L97.5 35.5278L98.25 36.1389L99.0833 36.7222L101 37.5278L102 37.75L103 37.9167L105 38L106 38L109 38L117 38L117 32L111 32L109 32L108 32L106 31.9167L105.056 31.7778L104.056 31.5833L102 31L103.5 29.8611L105.056 29.2778L106 29.1111L107 29.0278L108 29L110 29L112 29L117 29L117 25L118.083 26.2222L119.278 27.1944L120.083 27.7222L122 28.5278L124 28.9167L126 29L128 29L132 29L131 31L131 32L118 32L118 38L125 38L127 38L128 38L129 38L131 37.9722L132 37.9167L134 37.5L134.972 37.0556L135.889 36.5L137.361 34.9167L137.889 33.9722L138.583 32L138.833 30L138.75 29L138.278 27L137.361 25.1111L136.694 24.3056L135.889 23.6389L134 22.7222L133 22.4167L131 22.0833L130 22.0278L128 21.9722L127 21.9167L125.056 21.5833L123 21L124.5 19.8611L126.056 19.2778L127 19.1111L128 19.0278L129 19L131 19L133 19L138 19L138 15L140.028 14.75L140.972 14.5L142.5 13.5L143.5 11.9167L143.806 10L143.278 8.08333L142.722 7.27778L141.944 6.47222L140 5L138.5 5.44444L137 6.02778L136.5 6.19445L135 7z"/>
<path style="fill:#010101; stroke:none;" d="M136 10L137 11L136 10M141 10L142 11L141 10M149 10L150 11L149 10z"/>
<path style="fill:#01ab56; stroke:none;" d="M150 10L150.778 10.7222L151.306 10.75L152.111 10.9444L153.028 10.9722L153.944 11L154.944 11L157 11L156.222 10.2778L155.694 10.25L154.889 10.0556L153.972 10.0278L153.056 10L152.056 10L150 10z"/>
<path style="fill:#015656; stroke:none;" d="M157 10L157.778 10.7222L158.306 10.75L159.111 10.9444L160.028 10.9722L162 11L163.944 11L167 11L166.222 10.2778L165.694 10.25L164.889 10.0556L163.972 10.0278L162 10L160.056 10L157 10z"/>
<path style="fill:#010101; stroke:none;" d="M167 10L168 11L167 10z"/>
<path style="fill:#018a94; stroke:none;" d="M170 10L170.361 11.1389L170.722 11.3333L171.333 11.7222L173.028 11.9722L174 12L176 12L177 12L179 12L185 12L185 17L181 17L181.111 18.4167L181.639 19.6667L182.722 21.2222L184.194 23.0278L184.972 24L186.25 26L186.583 27L186.5 29L185.806 31L185.389 32L185.028 33L184.417 34.9444L184.083 36.5L184 38L185.5 37.6389L186.028 37.2778L187.667 35.8889L188.278 34.9722L188.667 34L188.889 33L188.972 32L189 30L188.917 28L188.75 27L188.5 26L187.583 24.0278L186.361 22.3333L185.25 21.3611L184 21L185.444 20.2778L186 20.25L188 20L188 16.9444L188 16L187.972 15L187.889 14L187.722 13.0556L187.139 11.5L186 10L183.944 10.5833L182.944 10.7778L182 10.9167L180 11L178 11L176 11L174 10.9167L173.056 10.7778L172.056 10.5833L170 10z"/>
<path style="fill:#01ab56; stroke:none;" d="M171 10L171.778 10.7222L172.306 10.75L173.056 10.9444L173.972 10.9722L176 11L175.222 10.2778L174.694 10.25L173.944 10.0556L173.028 10.0278L171 10z"/>
<path style="fill:#015656; stroke:none;" d="M176 10L176.778 10.7222L177.306 10.75L178.111 10.9444L179.028 10.9722L181 11L181.944 11L185 11L184.222 10.2778L183.694 10.25L182.889 10.0556L181.972 10.0278L180 10L179.056 10L176 10z"/>
<path style="fill:#01c194; stroke:none;" d="M148 11L148 13.0556L148 14.0556L148.083 16L148.5 17.8889L149.444 19.2778L150.194 19.6667L152 20L151.889 18.6111L151.667 18.2778L151.333 17.6667L150.389 17.1111L149 17L149 14.9444L148.972 13.9722L148.944 13.1111L148.75 12.3056L148.722 11.7778L148 11z"/>
<path style="fill:#136391; stroke:none;" d="M149 11L149 17L151.056 17L152.056 17L153 17L155 17.0833L155.944 17.2222L156.944 17.4167L159 18L158.639 16.8611L157.667 16.2778L156.889 16.1111L155 16L153.056 16L150 16L150 12L156 12L155.222 11.2778L154.694 11.25L153.889 11.0556L152.972 11.0278L152.056 11L151.056 11L149 11z"/>
<path style="fill:#018694; stroke:none;" d="M156 11L156.778 11.7222L157.306 11.75L158.111 11.9444L159.028 11.9722L161 12L163 12L167 12L166.889 13.5L166.278 15.0556L164.917 17L163.333 18.9444L162.361 20.5L162 22L163.5 22.3333L164.056 22.6111L165.944 23.3889L166.5 23.6667L168 24L167.833 22.5556L167.833 21.4444L168 20L169 21L169 23L169.722 22.2222L169.75 21.6944L169.944 20.8889L169.972 19L169.917 18L169.611 16L169.389 15.0556L169.222 14.0556L169.083 13.5L169 12L168 11L156 11z"/>
<path style="fill:#01a092; stroke:none;" d="M169 11L169 16L169.722 15.2222L169.75 14.6944L169.917 13.0833L169.75 12.3056L169.722 11.7778L169 11z"/>
<path style="fill:#ffffff; stroke:none;" d="M139 12L140 13L139 12z"/>
<path style="fill:#213a8f; stroke:none;" d="M150 12L150 16L159 16L158.222 17.5L157.722 18.0556L156.306 20L155.333 21.9444L155.111 22.9444L155 25L156.5 25.0278L158.056 25.3056L159.944 26.0278L160.5 26.3333L162 27L162 29L160.5 29.6667L159.944 29.9722L158.944 30.3889L157 30.8056L155 30.5278L154 30.1667L152.056 29.4722L151.5 29.2778L150 29L149.75 30.5L149.611 31L149.25 32.5L149 34L150.5 34.8056L151.056 34.9722L152.056 35.3333L153 35.5833L155 35.9167L156 35.9722L157 36L159 35.9167L161 35.5833L162 35.3056L163 34.9722L163.972 34.5833L165.75 33.5L167.056 31.9167L167.5 30.9722L167.917 29L167.889 27L167.278 25.0278L165.889 23.3333L164.056 22.3333L163.5 22.1111L162 22L162.778 20.5L163.306 19.9444L164.083 18.9444L165.667 17L166.667 15.0556L166.889 14.0556L167 12L150 12M170 12L170 25L172.056 25L173.056 25L175 25.0833L176 25.25L177 25.4722L178.944 26.1944L179.5 26.5L181 27L180.222 28.4722L178.889 29.7222L177.972 30.2778L176 30.8611L175 30.8889L173 30.6111L172.056 30.3889L171.056 30.2222L170.5 30.0833L169 30L168.417 32L168.222 33L168.083 33.5L168 35L169.5 35.0833L170.056 35.2222L171.056 35.3889L172 35.6111L174 35.9167L175 35.9722L176 36L178 35.9167L179 35.7778L181 35.3056L181.972 34.9722L183.75 34.0833L184.528 33.5L185.722 31.9167L186.528 30L186.75 29L186.861 27L186.667 26L186.278 25L185.667 24.0278L184.889 23.1111L183 21.7222L181 21.1111L179 21L178.056 21L175 21L175 17L176 16L185 16L185 12L170 12z"/>
<path style="fill:#010156; stroke:none;" d="M39 13L40 14L39 13z"/>
<path style="fill:#010101; stroke:none;" d="M121 13L122 14L121 13M119 14L120 15L119 14M12 15L13 16L12 15M97 15L98 16L97 15M118 15L119 16L118 15z"/>
<path style="fill:#010156; stroke:none;" d="M78 16L79 17L78 16z"/>
<path style="fill:#136e91; stroke:none;" d="M176 16L176.778 16.7222L177.306 16.75L178.111 16.9444L179.028 16.9722L181 17L181.944 17L185 17L184.222 16.2778L183.694 16.25L182.889 16.0556L181.972 16.0278L180 16L179.056 16L176 16z"/>
<path style="fill:#01b094; stroke:none;" d="M152 17L152.111 18.3889L152.667 19.3333L152.861 19.6389L154 20L154 28L155 29L157.056 29.0833L158.944 29.4167L161 30L161 26L155 26L155.028 24.5L155.333 22.9444L155.694 22L156.778 20.0556L157.306 19.0556L157.639 18.5L158 17L152 17z"/>
<path style="fill:#0f7592; stroke:none;" d="M175 17L175 21L180 21L179.222 20.25L178.722 20.1389L177.278 19.3333L176.083 18.1944L175.833 17.75L175 17z"/>
<path style="fill:#019b94; stroke:none;" d="M176 17L176 20L177.5 20.0833L178.056 20.2222L179.944 20.6111L180.944 20.7778L181.5 20.9167L183 21L182.028 19.5833L181.611 18.7778L181.333 18.4167L181 17L176 17z"/>
<path style="fill:#010101; stroke:none;" d="M20 18L21 19L20 18z"/>
<path style="fill:#ffffff; stroke:none;" d="M18 22L33 22L33.25 20.5556L33.5833 19.4444L34 18L29 18L27 18L26 18L25 18L23 18.0833L21.0278 18.5L19.3333 19.4444L18.3611 20.5833L18 22M42.0833 19.7222L41.25 20.3333L39.9444 22.0278L39.5 23L39.1111 25L39.1111 26L39.5 28L40.5 29.8889L41.25 30.6667L42.0833 31.2778L43.0278 31.6667L44 31.8889L46 31.9722L47.9722 31.6667L48.9167 31.2778L49.75 30.6667L51.0556 28.9722L51.5 28L51.8889 26L51.8889 25L51.5 23L50.5 21.1111L49.75 20.3333L48.9167 19.7222L47.9722 19.3333L47 19.1111L45 19.0278L43.0278 19.3333L42.0833 19.7222M64 19L64 22L72 22L72 20L71 19L64 19z"/>
<path style="fill:#010101; stroke:none;" d="M103 19L102 21L103.083 20L103.417 19.6667L103 19z"/>
<path style="fill:#ffffff; stroke:none;" d="M103 22L117 22L117 19L112 19L110 19L108 19L107 19.0278L106.028 19.1111L104.333 19.6667L103.361 20.6111L103 22z"/>
<path style="fill:#010156; stroke:none;" d="M40 20L41 21L40 20z"/>
<path style="fill:#010101; stroke:none;" d="M123 20L124 21L123 20z"/>
<path style="fill:#01ba94; stroke:none;" d="M168 20L167.917 21.5L167.778 22L167.583 23L167 25L168.472 27.0278L169.278 27.9444L170.972 29.2778L172.5 29.8889L174 30L175 29L175 26L169 26L169 23.9444L168.972 22.9722L168.944 22.1111L168.75 21.3056L168.722 20.7778L168 20z"/>
<path style="fill:#010156; stroke:none;" d="M102 21L103 22L102 21z"/>
<path style="fill:#ffffff; stroke:none;" d="M167.333 21.6667L167.333 22L167.667 22.3333L167.667 22L167.333 21.6667z"/>
<path style="fill:#013a72; stroke:none;" d="M32 22L32 29L32.7222 28.2222L32.75 27.6944L32.9444 26.8889L32.9722 25.9722L32.9444 24.1111L32.75 23.3056L32.7222 22.7778L32 22z"/>
<path style="fill:#015656; stroke:none;" d="M186 22L187 23L186 22z"/>
<path style="fill:#0f7392; stroke:none;" d="M169 23L169.333 24.7222L169.722 25.3333L170.333 25.6667L171.111 25.8889L173 26L174 26L174.944 26L178 26L177.222 25.2778L176.694 25.25L175.889 25.0556L174.972 25.0278L173.028 24.8889L172.083 24.6944L170.472 23.9722L170.083 23.6667L169 23z"/>
<path style="fill:#013a72; stroke:none;" d="M10 24L10 39L10.7222 38.2222L10.75 37.6944L10.9444 36.8889L10.9722 35.9722L11 34L11 33L11 31L11 29L11 28L10.9722 27.0278L10.9444 26.1111L10.75 25.3056L10.7222 24.7778L10 24z"/>
<path style="fill:#156191; stroke:none;" d="M155 25L155.778 25.7222L156.306 25.75L157.056 25.9444L157.972 25.9722L160 26L159.222 25.2778L158.694 25.25L157.944 25.0556L157.028 25.0278L155 25z"/>
<path style="fill:#01a594; stroke:none;" d="M175 26L175.111 27.3889L175.333 27.7222L175.667 28.3333L176.611 28.8889L178 29L176.5 29.7222L175.944 29.75L175 29.9444L174.056 29.9722L172 30L172.778 30.7222L173.306 30.75L174.111 30.9444L175.028 30.9722L175.944 31L176.944 31L179 31L180 30L180 26L175 26z"/>
<path style="fill:#010101; stroke:none;" d="M119 27L120 28L119 27z"/>
<path style="fill:#0f7a92; stroke:none;" d="M161.333 27.6667L161.333 28L161.667 28.3333L161.667 28L161.333 27.6667z"/>
<path style="fill:#019494; stroke:none;" d="M168 27L167.75 29.0556L167.5 30.0556L166.5 31.9167L164.917 33.5L164.028 34.0556L162.5 34.7222L161 35L161 40L162.5 39.7222L164 39.1667L164.944 38.8056L165.5 38.5L167 38L167.083 36.5L167.472 34.9444L168.194 33L168.611 32L168.944 31L169.306 29.1111L169.111 28.3056L169.056 27.7778L168 27z"/>
<path style="fill:#0f7992; stroke:none;" d="M180.333 27.6667L180.333 28L180.667 28.3333L180.667 27.6667L180.333 27.6667z"/>
<path style="fill:#01a492; stroke:none;" d="M150.667 28.3333L151 28.6667L151.333 28.6667L151.333 28.3333L150.667 28.3333z"/>
<path style="fill:#019994; stroke:none;" d="M149 29L148.417 31.0556L148.194 32.8889L148.306 33.6667L148.861 34.6389L150 35L149.806 32.9444L149.806 31.1111L149.694 30.3056L149.694 29.7778L149 29z"/>
<path style="fill:#019e93; stroke:none;" d="M152 29L152.778 29.9722L153.306 30.1389L154.111 30.5556L156 30.9167L157.944 31L160 31L159.222 30.2778L158.694 30.2222L156.972 29.8056L155.056 29.3889L154.056 29.2222L153.5 29.0833L152 29z"/>
<path style="fill:#ffffff; stroke:none;" d="M155 29L155.778 29.7222L156.25 29.75L157.056 29.9444L159 30L158.222 29.2778L157.75 29.25L156.944 29.0556L155 29z"/>
<path style="fill:#015656; stroke:none;" d="M159 29L160 30L159 29z"/>
<path style="fill:#136091; stroke:none;" d="M169.667 29.3333L170 29.6667L170.333 29.6667L170 29.3333L169.667 29.3333z"/>
<path style="fill:#ffffff; stroke:none;" d="M174 29L174.778 29.7222L175.25 29.75L176.056 29.9444L178 30L177.222 29.2778L176.75 29.25L175.944 29.0556L174 29z"/>
<path style="fill:#016767; stroke:none;" d="M189.333 29.6667L189.333 30.3333L189.667 30.3333L189.667 30L189.333 29.6667z"/>
<path style="fill:#010101; stroke:none;" d="M102 30L103 31L102 30M103 31L104 32L103 31M189 31L190 32L189 31M138 32L139 33L138 32z"/>
<path style="fill:#01c993; stroke:none;" d="M147.333 33.6667L147.333 34L147.667 34.3333L147.667 34L147.333 33.6667z"/>
<path style="fill:#01a394; stroke:none;" d="M167 34L167.333 35.9722L167.722 36.8056L169.111 38.0556L170.028 38.5L172 39L173 39.1944L174 39.3889L175 39.6111L177 39.9167L179 39.9722L180 39.9167L180.944 39.7778L181.944 39.5833L184 39L184.083 37.5L184.222 37L184.417 36L185 34L183.5 34.25L182.944 34.4167L181.944 34.6944L180 35.3056L179 35.5833L177 35.9167L175 36L174 35.9722L173 35.9167L171 35.5278L169.056 34.8056L168.5 34.5L167 34z"/>
<path style="fill:#010101; stroke:none;" d="M35 35L36 36L35 35M55 35L56 36L55 35z"/>
<path style="fill:#01a994; stroke:none;" d="M148 35L148.361 36.4167L149.333 37.5556L151.028 38.5833L152 38.9722L154 39.5833L155 39.7778L156 39.9167L157.944 40L158.944 40L161 40L161 36L157.944 36L157 36L155 35.9722L154 35.9167L152 35.6111L151.056 35.3889L150.056 35.2222L149.5 35.0833L148 35z"/>
<path style="fill:#0e7092; stroke:none;" d="M151.667 35.3333L152 35.6667L152.333 35.6667L152 35.3333L151.667 35.3333z"/>
<path style="fill:#0f6f92; stroke:none;" d="M170.667 35.3333L171 35.6667L171.333 35.6667L171 35.3333L170.667 35.3333z"/>
<path style="fill:#010156; stroke:none;" d="M98 36L99 37L98 36M100 37L101 38L100 37z"/>
<path style="fill:#010101; stroke:none;" d="M134 37L135 38L134 37z"/>
<path style="fill:#015656; stroke:none;" d="M165 38L166 39L165 38M184 38L185 39L184 38z"/>
<path style="fill:#010101; stroke:none;" d="M17 39L18 40L17 39z"/>
<path style="fill:#01758c; stroke:none;" d="M173.667 39.3333L173.667 39.6667L174.333 39.6667L174 39.3333L173.667 39.3333z"/>
<path style="fill:#ffffff; stroke:none;" d="M182.667 39.3333L183 39.6667L183.333 39.6667L183 39.3333L182.667 39.3333z"/>
<path style="fill:#010101; stroke:none;" d="M184 39L185 40L184 39z"/>
<path style="fill:#10458b; stroke:none;" d="M181 41L181.111 42.4722L181.667 43.75L181.861 44.2222L183 45L181.861 46.0833L181.278 47.2222L181.111 47.5833L181 49L188 49L189 48L188.944 45.9444L188.833 44L188.778 43.0556L188.833 42.0556L189 40L187.5 39.7778L185.944 39.6111L184.056 39.75L182.5 40.1944L181 41z"/>
<path style="fill:#01ca94; stroke:none;" d="M59 40L59 49L68 49L68 45L70 46.9444L71 47.75L71.5 48.2222L73 49L74 48L74 46L75.0833 47.2222L76.2778 48.1111L77.0833 48.5L79 48.9167L81 49L83 49L84 49L86 49L92 49L93 48L93 46L94.5 47.1389L95 47.3333L96.5 47.8889L98 48L98 40L96 40L96 44L94.5 42.5278L92.9444 41.2778L92 40.7222L90 40.1111L89 40.0278L88 40L87 40L85 40L82 40L81 40L79 40.0278L77.1111 40.2778L76.3056 40.6667L75.7778 40.8611L75 42L73.5833 40.6667L73.1944 40.3056L72 40L71 41L71 43L68.9444 41.2778L67.9444 40.6667L66 40.1111L64 40L63 40L62.0556 40L59 40z"/>
<path style="fill:#010101; stroke:none;" d="M71 40L72 41L71 40z"/>
<path style="fill:#01ca94; stroke:none;" d="M99 40L99 49L100.139 48.6389L100.333 48.3333L100.889 47.3889L101 46L104 46L104 49L109 49L109.778 47.6111L110.25 47.2778L111.528 46.3611L113 46L113 48L114 49L115.472 48.9722L116.722 48.6667L117.278 48.3333L117.889 47.3889L118 46L119.5 46.75L120.056 47.1944L122 48.3056L123 48.6667L124.944 48.9722L127 49L127 40L125.806 40.3056L125.417 40.6667L124 42L123.222 40.8611L122.694 40.6667L121.889 40.2778L120.972 40.1111L120 40.0278L119.056 40L118.056 40L116 40L116 46L115 44.5L114.75 43.9444L113.528 42.1111L112.806 41.3333L111.472 40.3611L110 40L109.306 41.5L108.944 42.0556L107.917 43.9444L107.278 45.5L107 47L106.278 45.5L106.25 44.9444L106.056 43.9444L106.028 43.0556L106 42.0556L106 40L104.861 40.3611L104.667 40.6667L104.111 41.6111L104 43L101 43L100.889 41.6111L100.333 40.6667L100.139 40.3611L99 40z"/>
<path style="fill:#010101; stroke:none;" d="M131 40L132 41L131 40z"/>
<path style="fill:#01ca94; stroke:none;" d="M132 40L130.778 41.5L129.806 43.0556L129.278 44L128.472 45.9444L128.083 47.5L128 49L129.389 48.6389L130.333 47.7222L130.639 47.3889L131 46L132.472 46.3611L132.972 46.6944L133.833 47.2222L135.333 48.3056L135.75 48.6389L137 49L137.444 47.5L137.25 46.9444L137.028 45.9444L136 44L135.417 43.0556L134.889 42.0556L134.528 41.5L134 40L132 40z"/>
<path style="fill:#10458b; stroke:none;" d="M151 40L150.028 41.5L149.833 42.0556L149.361 43.0556L148.611 45L147.806 46.9444L147.5 47.5L147 49L148.5 48.9722L150.056 48.6944L151.944 47.9722L152.5 47.6667L154 47L154.361 48.1389L155.278 48.7222L156.528 48.9722L158 49L157.75 47.5L157.306 45.9444L156.611 44L156.194 43.0556L155.806 42.0556L155.5 41.5L155 40L151 40M159 40L159 49L160.472 48.9722L161.778 48.7222L162.917 48.1389L164 47L164.778 48.1389L165.25 48.3333L166.528 48.8889L168 49L168 40L166.583 40.1111L166.222 40.2778L165.083 40.8611L164 42L163.222 40.8611L162.694 40.6667L161.944 40.2778L160.5 40.0278L159 40M171 40L170 41L170 43.0556L170.028 44.0556L170.333 45.9722L171.333 47.6667L172.111 48.2778L173.028 48.6667L174 48.8889L175 48.9444L176 48.8889L176.972 48.6667L178.667 47.6667L179.667 45.9722L179.861 45L179.861 44L179.667 43.0278L178.667 41.3333L177.889 40.7222L176 40.1111L174.056 40L173.056 40L171 40z"/>
<path style="fill:#010101; stroke:none;" d="M109 41L110 42L109 41M82 42L83 43L82 42z"/>
<path style="fill:#ffffff; stroke:none;" d="M185 42L186 43L185 42z"/>
<path style="fill:#010101; stroke:none;" d="M77 43L78 44L77 43z"/>
<path style="fill:#ffffff; stroke:none;" d="M118 43L118.778 43.7222L119.25 43.75L120.056 43.9444L122 44L121.222 43.2778L120.75 43.25L119.944 43.0556L118 43M173 43L173.361 44.3889L173.667 44.7222L174.611 45.6389L176 46L175.889 44.6111L175.333 43.6667L174.722 43.3333L174.389 43.1111L173 43z"/>
<path style="fill:#010101; stroke:none;" d="M181 44L182 45L181 44z"/>
<path style="fill:#019a67; stroke:none;" d="M61 45L61.7222 45.7222L62.25 45.75L64 46L63.2778 45.2778L62.75 45.25L61 45z"/>
<path style="fill:#ffffff; stroke:none;" d="M65 45L66 46L65 45z"/>
<path style="fill:#019a67; stroke:none;" d="M85 45L85.7778 45.7222L86.25 45.75L87.0556 45.9444L89 46L88.2222 45.2778L87.75 45.25L86.9444 45.0556L85 45z"/>
<path style="fill:#ffffff; stroke:none;" d="M89 45L90 46L89 45M124.333 45.6667L124.333 46.3333L124.667 46.3333L124.667 46L124.333 45.6667z"/>
<path style="fill:#010101; stroke:none;" d="M128 45L129 46L128 45M148 45L149 46L148 45M182 45L183 46L182 45M157 46L158 47L157 46M127 47L128 48L127 47z"/>
<path style="fill:#018080; stroke:none;" d="M134 47L135 48L134 47z"/>
<path style="fill:#010101; stroke:none;" d="M170 47L171 48L170 47z"/>
<path style="fill:#018080; stroke:none;" d="M73 48L74 49L73 48z"/>
<path style="fill:#019a67; stroke:none;" d="M96.6667 48.3333L97 48.6667L97.3333 48.6667L97.3333 48.3333L96.6667 48.3333z"/>
<path style="fill:#010101; stroke:none;" d="M137 48L138 49L137 48z"/>
</svg>
