<svg id="eO4PiqTIyp11" xmlns="http://www.w3.org/2000/svg" xmlns:xlink="http://www.w3.org/1999/xlink" viewBox="0 0 328 125" shape-rendering="geometricPrecision" text-rendering="geometricPrecision"><g id="eO4PiqTIyp12" transform="matrix(0.1 0 0 -0.1 -36 155)"><path id="eO4PiqTIyp13" d="M360,925L360,300L2000,300L3640,300L3640,925L3640,1550L2000,1550L360,1550L360,925ZM1330,863L1330,820L1198,902C1125,947,1051,992,1033,1002L1001,1021L838,921L675,821L672,860C669,899,675,907,835,1095L1001,1290L1166,1098C1323,915,1330,905,1330,863ZM1780,1125L1780,1010L1905,1010L2030,1010L2030,1125L2030,1240L2095,1240L2160,1240L2160,925L2160,610L2095,610L2030,610L2030,750L2030,890L1905,890L1780,890L1780,750L1780,610L1710,610L1640,610L1640,925L1640,1240L1710,1240L1780,1240L1780,1125ZM2740,1180L2740,1120L2650,1120L2560,1120L2560,865L2560,610L2490,610L2420,610L2420,865L2420,1120L2330,1120L2240,1120L2240,1180L2240,1240L2490,1240L2740,1240L2740,1180ZM3195,1229C3303,1199,3345,1065,3274,980L3248,950L3275,928C3362,860,3343,702,3242,642C3196,615,3192,615,3003,612L2810,608L2810,924L2810,1240L2983,1240C3077,1240,3173,1235,3195,1229ZM1330,680L1330,610L1000,610L670,610L670,673C670,708,673,740,677,743C680,747,829,750,1007,750L1330,750L1330,680Z" fill="rgb(255,255,255)" stroke="none" stroke-width="1"/><path id="eO4PiqTIyp14" d="M2940,1066L2940,1000L3033,1000C3143,1000,3170,1013,3170,1064C3170,1114,3150,1124,3039,1128L2940,1132L2940,1066Z" fill="rgb(255,255,255)" stroke="none" stroke-width="1"/><path id="eO4PiqTIyp15" d="M2940,810L2940,728L3051,732C3176,735,3190,743,3190,810C3190,870,3167,883,3045,888L2940,893L2940,810Z" fill="rgb(255,255,255)" stroke="none" stroke-width="1"/></g></svg>