<svg id="eB5lnIkjad41" xmlns="http://www.w3.org/2000/svg" xmlns:xlink="http://www.w3.org/1999/xlink" viewBox="-90 -55.075 780 330.45" shape-rendering="geometricPrecision" text-rendering="geometricPrecision"><path id="eB5lnIkjad42" d="M566.8,86.8C566.8,133.5,500.6,173.7,406.1,191.1C510.6,174.8,584.4,134.9,584.4,88.2C584.4,76.6,579.9,65.5,571.4,55C570,53.3,568.5,51.6,566.9,49.9C548,29.9,514.8,12.6,472.1,0C530,20.8,566.8,52,566.8,86.8ZM37.7,48C25.3,60.4,18.4,74,18.4,88.3C18.4,133.5,87.9,172.5,187.6,189.6C97.2,171.4,34.7,132.2,34.7,86.8C34.7,53.3,68.7,23.2,122.8,2.4C88.9,13.2,61.5,27,43.3,42.8C41.3,44.5,39.5,46.2,37.7,48Z" fill="rgb(255,255,255)" stroke="none" stroke-width="1"/><path id="eB5lnIkjad43" d="M567,49.9C568.6,51.6,570.1,53.3,571.5,55C586.2,68,594.3,82.3,594.3,97.3C594.3,157.7,462.6,206.6,300.2,206.6C137.8,206.6,6.1,157.8,6.1,97.4C6.1,79.6,17.5,62.8,37.8,48C39.6,46.2,41.4,44.5,43.4,42.8C15.8,60.4,0,81.2,0,103.4C0,168,134.3,220.3,300.1,220.3C465.7,220.3,600,168,600,103.4C600,84.1,588.1,66,567,49.9Z" fill="rgb(188,190,192)" stroke="none" stroke-width="1"/><path id="eB5lnIkjad44" d="M129.7,49L129.7,46.2L224.9,46.2L224.9,49L216.9,49C207.9,49,201.3,50.1,197.2,52.3C194.6,53.7,193.2,57.2,193.2,62.7L193.2,107.8C193.2,114.8,191.3,120.5,187.7,124.8C184,129.1,177.7,132.9,168.7,136.1C159.7,139.3,148.9,140.9,136.1,140.9C125.8,140.9,117.7,139.8,111.8,137.7C105.9,135.6,102.9,133.2,102.9,130.5C102.9,128.2,104.2,126.6,106.9,125.4C110.5,124,114.7,123.3,119.6,123.3C123.1,123.3,126.3,123.8,129,124.7C131.8,125.6,135.2,128.2,139.5,132.2C142,134.6,145.2,135.8,149.2,135.8C152.1,135.8,154.9,135.1,157.5,133.6C160,132.1,161.3,129.5,161.3,125.6L161.3,62.6C161.3,58,160.6,54.9,159.2,53.4C158.1,52.3,155.8,51.4,152.4,50.5C147.8,49.4,142.8,48.9,137.6,48.9L129.7,48.9ZM303.5,133.7C305.5,133.3,307.5,132.8,309.5,132.1C314.1,130.5,317.6,128.1,320.1,125C322.5,122,323.8,118.5,323.8,114.7C323.8,110.4,322.3,106.5,319.2,103.1C316.2,99.6,312.1,97.2,306.8,95.8C305.8,95.5,304.6,95.2,303.4,95L303.4,86.6C303.8,86.5,304.2,86.4,304.7,86.3C309.3,84.9,312.9,82.8,315.3,80.1C317.8,77.4,319.1,74,319.1,69.9C319.1,65.9,317.8,62.5,315.4,59.9C313,57.2,309.5,55.3,304.9,53.8C304.4,53.7,303.9,53.5,303.4,53.4L303.4,46.7C316.6,46.9,326.1,47.8,332,49.5C338.7,51.4,343.9,54.2,347.8,58C351.6,61.7,353.5,65.8,353.5,70C353.5,74.5,351.1,78.4,346.2,82C341.3,85.5,332.8,88.2,320.6,90.3C333.8,92.4,343,94.9,348.3,97.8C356,101.9,359.9,107.3,359.9,114C359.9,121,355.6,126.7,347.2,131.4C337.1,136.8,322.4,139.6,303.4,139.7L303.4,133.7ZM283.1,93.8L283.1,127.1C283.1,129.5,284,131.4,285.9,132.7C287.8,134,290.6,134.6,294.3,134.6C297.5,134.6,300.5,134.3,303.5,133.8L303.5,139.8L231.3,139.8L231.3,137.4C237.9,137.4,242.4,137,244.6,136.1C247,135.3,248.6,134.2,249.6,133C250.5,131.7,250.9,128.5,250.9,123.5L250.9,63.2C250.9,58.1,250.5,54.8,249.6,53.6C248.7,52.3,247,51.2,244.6,50.4C242.2,49.6,237.8,49.2,231.3,49.2L231.3,46.8L298.2,46.8C300,46.8,301.7,46.8,303.4,46.9L303.4,53.6C298.8,52.6,291.9,52,283,52.1L283,88.7C291.9,88.7,298.7,88.1,303.4,86.8L303.4,95.2C298.4,94.2,291.6,93.7,283.1,93.8ZM440.2,137.6C455.9,133.9,464.2,126,464.2,116.6C464.2,103.4,449.4,95.5,427.1,90C424.8,89.4,422.5,88.7,420.3,88.1L420.3,80C425,82,430.8,83.9,437.5,85.7C462,91.9,480.1,100,480.1,114.3C480.1,128.6,462.2,136.6,443,138.3C441.6,138.5,439.3,137.9,440.2,137.6ZM420.4,47.3C426,46.5,432.3,46,439.3,46C460.5,46,470,48.7,470.9,50.6C472.1,53.4,472.8,60,472.8,64.2C472.8,65.3,467.8,65.5,467.4,64.2C463.4,54.8,456.7,49.1,438.1,49.1C431.4,49.1,425.3,49.9,420.4,51.4ZM420.4,138C439.1,135.4,450,128.2,450,118.3C450,108.1,439.1,101.8,420.4,96.3L420.4,99.9C433.8,104.7,440.7,110.4,440.7,118.7C440.7,127,433,132.3,420.4,134.5ZM420.4,88.2C402.3,82.8,390.6,76.9,390.8,67.4C390.6,57.7,401.3,50.3,420.4,47.4L420.4,51.4C411.7,54,406.5,58.8,406.5,65.2C406.5,71.6,411.5,76.2,420.4,80ZM420.4,96.4C417.5,95.5,414.5,94.6,411.3,93.9C388.4,87.7,376.8,79.4,376.8,68.6C376.8,57.9,387.9,50.5,401.8,47.8C403.5,47.4,400.6,46.7,399.2,46.9C384.7,48.5,367.1,56.7,367.1,69.6C367.1,80.6,381.6,89.5,406.6,96.1C411.8,97.4,416.5,98.7,420.5,100.1L420.5,96.4ZM420.4,134.6L420.4,138.1C415.5,138.8,410,139.1,404.1,139.1L403.8,139.1C383.1,139.1,370.6,136.3,369.5,133.6C368.6,131,367.1,124.7,367.1,119.8C367.1,118.7,372.3,118.7,372.6,119.8C376.1,129.8,385.9,135.8,404.9,135.8C410.8,135.8,415.9,135.3,420.4,134.6Z" fill="rgb(255,255,255)" stroke="none" stroke-width="1"/><path id="eB5lnIkjad45" d="M583.6,58.9C577.6,58.9,572.6,53.9,572.6,47.9C572.6,41.8,577.5,36.9,583.6,36.9C589.8,36.9,594.6,41.8,594.6,47.9C594.7,53.9,589.7,58.9,583.6,58.9ZM583.6,38C578.2,38,573.8,42.4,573.8,47.9C573.8,53.3,578.2,57.8,583.6,57.8C589,57.8,593.5,53.4,593.5,47.9C593.5,42.3,589.2,38,583.6,38Z" fill="rgb(223,224,228)" stroke="none" stroke-width="1"/><path id="eB5lnIkjad46" d="M584,47.8C584.2,47.8,584.3,47.7,584.3,47.7C584.6,47.6,584.9,47.4,585.1,47.1C585.3,46.8,585.4,46.5,585.4,46.1C585.4,45.5,585.2,45.1,584.9,44.8C584.7,44.6,584.4,44.5,584.1,44.5L584.1,44C584.9,44,585.5,44.1,586,44.2C586.5,44.4,586.9,44.6,587.3,45C587.6,45.3,587.8,45.8,587.8,46.3C587.8,46.9,587.5,47.4,587,47.7C586.7,48,586.2,48.1,585.7,48.3L587.9,51C588.2,51.3,588.4,51.6,588.5,51.7C588.7,51.8,588.9,51.9,589.2,51.9L589.2,52.1L586.2,52.1L584.1,49.5L584.1,47.8ZM582.5,44.4L582.5,47.9L582.9,47.9C583.3,47.9,583.7,47.8,583.9,47.8L583.9,49.2L583.1,48.2L582.5,48.2L582.5,50.5C582.5,50.9,582.6,51.3,582.6,51.3L582.9,51.6C583.1,51.7,583.4,51.7,583.7,51.7L583.7,51.9L579,51.9L579,51.7C579.4,51.7,579.8,51.7,579.9,51.6C580,51.5,580.2,51.4,580.2,51.3C580.2,51.1,580.3,50.9,580.3,50.5L580.3,45.3C580.3,44.9,580.2,44.6,580.2,44.5L579.9,44.2C579.7,44.1,579.4,44,579,44L583.9,44L583.9,44.5C583.6,44.4,583.5,44.4,583.2,44.4Z" fill="rgb(223,224,228)" stroke="none" stroke-width="1"/></svg>