<svg id="ehgeWQlRHaE1" xmlns="http://www.w3.org/2000/svg" xmlns:xlink="http://www.w3.org/1999/xlink" viewBox="0 0 260 160" shape-rendering="geometricPrecision" text-rendering="geometricPrecision"><g id="ehgeWQlRHaE2" transform="matrix(1.33333 0 0 -1.33333 0 258.667)"><g id="ehgeWQlRHaE3" transform="matrix(0.1 0 0 0.1 0 0)"><g id="ehgeWQlRHaE4" transform="matrix(1 0 0 1 0 359.237)"><g id="ehgeWQlRHaE5" transform="matrix(1 0 0 1 3.61906 -415.373)"><g id="ehgeWQlRHaE6" transform="matrix(1 0 0 1 5.00004 70.0002)"><g id="ehgeWQlRHaE7" transform="matrix(1 0 0 1 0 345.373)"><g id="ehgeWQlRHaE8" transform="matrix(1 0 0 1 -0.000004 -45.3725)"><path id="ehgeWQlRHaE9" d="M1335.5,835.672L1335.5,1580.77L589.73,1580.77L589.73,835.672L1335.5,835.672" fill="rgb(253,253,253)" fill-rule="evenodd" stroke="none" stroke-width="1"/><path id="ehgeWQlRHaE10" d="M796.84,1253.97L859.008,1253.97C871.34,1253.97,882.543,1246.03,882.543,1232.93C882.543,1215.27,868.496,1202.91,849.023,1202.91L782.48,1202.91L796.84,1253.97" fill="rgb(0,138,91)" fill-rule="evenodd" stroke="none" stroke-width="1"/><path id="ehgeWQlRHaE11" d="M1102.65,1253.65L1161.38,1253.65C1189.23,1253.65,1190.34,1234.67,1190.34,1229.27C1190.34,1216.66,1179.25,1191.87,1145.45,1191.87L1085.61,1191.87C1085.61,1191.87,1102.33,1252.13,1102.65,1253.65" fill="rgb(0,138,91)" fill-rule="evenodd" stroke="none" stroke-width="1"/><path id="ehgeWQlRHaE12" d="M767.441,1149.9L821.195,1149.9C847.512,1149.9,849.008,1142.74,852.633,1136.6C856.234,1130.5,854.574,1117.63,852.078,1113.19C848.938,1107.61,843.629,1090.34,809.973,1090.34L750.273,1090.34C750.273,1090.34,767.418,1149.82,767.441,1149.9" fill="rgb(0,138,91)" fill-rule="evenodd" stroke="none" stroke-width="1"/><path id="ehgeWQlRHaE13" d="M1335.5,1309.19L1335.5,835.672L589.73,835.672L589.73,1309.19L733.23,1309.19L653.73,1033.55L816.48,1033.55C886.984,1033.55,899.273,1050.05,913.578,1062.08C932.695,1078.14,942.945,1116.38,934.359,1142.98C928.285,1161.79,910.535,1173.17,908.594,1173.72C930.621,1183.97,943.441,1206.44,945.023,1209.74C953.195,1226.78,959.531,1257.64,939.207,1282.46C922.309,1303.1,889.477,1308.78,865.656,1309.19L1039.91,1309.19L960.125,1032.99L1040.88,1032.99L1070.38,1137.71L1116.51,1137.71C1150.03,1137.71,1146.98,1116.79,1147.81,1107.79L1150.43,1030.77L1225.43,1030.8C1225.43,1030.8,1222.05,1117.23,1221.77,1123.57C1220.76,1145.75,1206.07,1155.77,1193.57,1155.77C1217.59,1162.27,1238.44,1184.12,1246.78,1198.14C1256.4,1214.3,1263.64,1240.01,1254.13,1265.54C1240.33,1302.6,1204.75,1308.75,1179.89,1309.19L1335.5,1309.19" fill="rgb(0,138,91)" fill-rule="evenodd" stroke="none" stroke-width="1"/><path id="ehgeWQlRHaE14" d="M589.73,1399.72L1335.5,1399.72L1335.5,1580.77L589.73,1580.77L589.73,1399.72" fill="rgb(250,178,21)" fill-rule="evenodd" stroke="none" stroke-width="1"/><path id="ehgeWQlRHaE15" d="M1486.76,604.078C1487.25,605.051,1487.73,606.508,1487.73,607.469C1492.11,621.563,1492.11,632.727,1486.76,640.984C1479,653.617,1458.6,659.922,1421.69,659.922L1401.3,659.922L1334.78,659.922L1282.82,476.363L1343.03,476.363L1361,539.973L1379.45,539.973C1390.61,539.973,1397.41,539.008,1401.3,536.09C1407.61,531.238,1406.64,522.977,1402.27,508.406C1402.27,506.961,1401.78,505.98,1401.3,505.008C1397.41,490.445,1395.96,480.242,1396.45,476.363L1401.3,476.363L1457.15,476.363L1458.6,481.707C1451.8,481.707,1454.71,489.961,1461.52,513.754C1472.2,551.148,1461.52,555.523,1444.52,562.797C1466.37,568.141,1480.45,584.648,1486.76,604.078ZM1429.46,597.766C1426.55,586.105,1416.84,581.254,1401.3,580.766C1399.85,580.285,1397.9,580.285,1395.96,580.285L1372.65,580.285L1382.85,616.699L1401.3,616.699L1411.01,616.699C1424.61,616.699,1433.35,610.879,1429.46,597.766" fill="rgb(255,255,255)" fill-rule="evenodd" stroke="none" stroke-width="1"/><path id="ehgeWQlRHaE16" d="M171.77,659.922L83.3906,659.922L30.9453,476.363L91.1641,476.363L107.188,533.176L137.781,533.176C141.176,533.176,144.578,533.66,147.492,533.66C194.109,536.574,221.789,560.859,231.98,597.766C242.668,635.645,224.219,659.922,171.77,659.922ZM174.68,597.766C170.797,582.707,160.117,576.887,147.492,576.398C146.523,576.398,145.551,575.914,144.578,575.914L119.324,575.914L130.977,616.699L147.492,616.699L147.977,616.699C161.086,616.699,179.543,614.758,174.68,597.766" fill="rgb(255,255,255)" fill-rule="evenodd" stroke="none" stroke-width="1"/><path id="ehgeWQlRHaE17" d="M1211.91,659.922L1124.51,659.922L1072.07,476.363L1161.9,476.363C1165.79,476.363,1169.67,476.363,1173.55,476.363C1215.31,478.797,1245.91,493.844,1256.59,531.723C1261.93,551.633,1256.11,568.629,1237.65,573.484C1251.73,580.766,1267.76,594.852,1273.1,613.793C1283.3,650.211,1253.2,659.922,1211.91,659.922ZM1201.72,536.09C1197.83,522.977,1187.14,519.578,1173.55,519.094C1172.58,519.094,1171.62,519.094,1170.64,519.094L1144.42,519.094L1154.13,553.09L1173.55,553.09C1192.5,553.09,1206.09,552.113,1201.72,536.09ZM1213.86,602.617C1210.95,591.449,1200.75,586.105,1188.61,586.105L1173.55,586.105L1163.85,586.105L1172.58,616.699L1173.55,616.699L1193.47,616.699C1206.09,616.699,1217.75,616.699,1213.86,602.617" fill="rgb(255,255,255)" fill-rule="evenodd" stroke="none" stroke-width="1"/><path id="ehgeWQlRHaE18" d="M636.004,635.645L642.805,659.922L474.297,659.922L460.699,611.359L514.605,611.359L476.238,476.363L536.453,476.363L574.816,611.359L629.203,611.359L636.004,635.645" fill="rgb(255,255,255)" fill-rule="evenodd" stroke="none" stroke-width="1"/><path id="ehgeWQlRHaE19" d="M234.902,476.363L387.863,476.363L400.004,519.094L307.254,519.094L315.508,547.75L390.777,547.75L403.402,590.477L327.648,590.477L334.934,616.699L424.281,616.699L436.422,659.922L286.859,659.922L234.902,476.363" fill="rgb(255,255,255)" fill-rule="evenodd" stroke="none" stroke-width="1"/><path id="ehgeWQlRHaE20" d="M986.117,664.777C976.891,664.777,967.664,663.32,958.93,661.863C913.762,651.668,876.859,617.676,863.262,569.598C845.293,506.961,873.945,471.512,931.246,471.512C940.473,471.512,949.699,472.48,958.93,474.422C1002.63,484.133,1040.5,517.156,1055.55,569.117C1069.15,617.188,1051.67,664.777,986.117,664.777ZM995.344,569.117C988.547,544.836,976.406,525.895,958.93,519.094C954.066,517.156,949.215,516.18,943.871,516.18C915.223,516.18,916.68,545.805,922.988,569.117C928.336,588.051,939.988,609.418,958.93,617.188C963.293,618.645,967.664,619.617,973.008,619.617C999.715,620.586,1002.14,593.883,995.344,569.117" fill="rgb(255,255,255)" fill-rule="evenodd" stroke="none" stroke-width="1"/><path id="ehgeWQlRHaE21" d="M1600.88,659.922L1596.99,653.617L1486.76,481.707L1483.36,476.363L1486.76,476.363L1542.13,476.363L1555.72,500.645L1596.99,500.645L1615.93,500.645L1615.93,476.363L1675.67,476.363L1662.06,659.922ZM1596.99,538.523L1578.06,538.523L1596.99,572.027L1615.45,604.566L1615.93,538.523L1596.99,538.523" fill="rgb(255,255,255)" fill-rule="evenodd" stroke="none" stroke-width="1"/><path id="ehgeWQlRHaE22" d="M767.594,659.922L681.16,659.922L636.004,500.164L629.203,476.363L636.004,476.363L688.93,476.363L707.387,539.973L725.836,539.973C736.52,539.973,743.805,539.008,747.688,536.09C753.52,531.238,752.543,522.977,748.656,508.406C748.172,506.961,748.172,505.98,747.688,505.008C743.805,490.445,742.348,480.242,742.832,476.363L747.688,476.363L803.531,476.363L804.988,481.707C798.191,481.707,801.105,489.961,807.906,513.754C818.59,551.148,807.906,555.523,790.422,562.797C813.73,568.629,828.301,586.105,834.125,607.469C844.324,642.93,828.785,659.922,767.594,659.922ZM775.855,597.766C772.457,586.105,763.23,581.254,747.688,580.766C746.23,580.285,744.289,580.285,742.348,580.285L718.555,580.285L729.238,616.699L747.688,616.699L756.914,616.699C770.996,616.699,779.738,610.879,775.855,597.766" fill="rgb(255,255,255)" fill-rule="evenodd" stroke="none" stroke-width="1"/><path id="ehgeWQlRHaE23" d="M1824.25,622.043C1830.08,622.043,1835.43,621.07,1838.82,619.129C1842.71,616.699,1844.65,612.816,1844.16,606.508L1900.98,606.508C1905.83,638.559,1890.29,664.777,1839.31,664.777C1793.18,664.777,1753.84,644.871,1743.16,606.016C1723.25,536.09,1833.97,555.031,1826.2,527.348C1823.77,518.609,1812.11,513.754,1797.54,513.754C1791.23,513.754,1785.41,515.211,1781.53,518.125C1777.16,521.531,1775.21,526.375,1775.7,532.691L1717.91,532.691C1710.14,499.676,1733.45,471.512,1782.01,471.512C1832.51,471.512,1873.79,491.902,1885.92,534.633C1904.86,601.164,1794.63,584.168,1802.4,611.848C1803.86,618.645,1811.15,622.043,1824.25,622.043" fill="rgb(255,255,255)" fill-rule="evenodd" stroke="none" stroke-width="1"/></g></g></g></g></g></g></g></svg>