<svg id="eN6IB5cEOzw1" xmlns="http://www.w3.org/2000/svg" xmlns:xlink="http://www.w3.org/1999/xlink" viewBox="0 0 715.734 139.953" shape-rendering="geometricPrecision" text-rendering="geometricPrecision"><g id="eN6IB5cEOzw2" transform="matrix(1 0 0 1 -49.2624 -388.304)"><g id="eN6IB5cEOzw3" transform="matrix(4.34784 0 0 4.34784 -546.312 -1547.05)"><g id="eN6IB5cEOzw4" transform="matrix(1.25 0 0 -1.25 149.495 467.861)"><path id="eN6IB5cEOzw5" d="M0,0C6.442,-2.736,10.766,3.752,8.046,8.384L14.371,4.753C13.003,0.195,8.674,-2.013,5.204,-1.837C2.066,-1.733,0,0,0,0" fill="rgb(255,255,255)" stroke="none" stroke-width="1"/></g><g id="eN6IB5cEOzw6" transform="matrix(1.25 0 0 -1.25 156.642 454.593)"><path id="eN6IB5cEOzw7" d="M0,0C-6.441,2.736,-10.766,-3.751,-8.046,-8.383L-14.369,-4.752C-13.001,-0.195,-8.674,2.014,-5.203,1.839C-2.065,1.734,0,0,0,0" fill="rgb(255,255,255)" stroke="none" stroke-width="1"/></g><g id="eN6IB5cEOzw8" transform="matrix(1.25 0 0 -1.25 154.118 451.467)"><path id="eN6IB5cEOzw9" d="M0,0C1.348,-0.291,2.544,-1.154,3.485,-2.008L8.834,-0.335C6.753,2.302,3.634,4.25,-0.209,4.406C-6.917,4.677,-12.559,-0.205,-13.057,-6.848L-12.378,-7.238C-12.022,-4.532,-8.187,1.768,0,0M10.7,-8.377C10.345,-11.083,6.51,-17.383,-1.678,-15.615C-3.027,-15.323,-4.222,-14.462,-5.164,-13.607L-10.512,-15.28C-8.43,-17.917,-5.314,-19.865,-1.469,-20.021C5.239,-20.292,10.88,-15.409,11.38,-8.767L10.7,-8.377Z" fill="rgb(255,255,255)" stroke="none" stroke-width="1"/></g><path id="eN6IB5cEOzw10" d="M211.56942,449.74687L213.69442,445.95937L218.10317,445.95937L215.97692,449.75187L211.56942,449.74687ZM217.57567,449.75187L219.70317,445.95937L224.10942,445.95937L221.98317,449.74687L217.57567,449.75187ZM214.27692,452.12937L219.35192,452.12937C222.28192,452.12937,226.04067,453.30562,228.06567,456.69812C230.00192,459.94437,229.91192,464.13562,228.20692,467.38062C226.46817,470.69437,222.89942,472.50312,219.47442,472.50312L214.10442,472.50312C211.84567,472.50312,209.14692,471.82437,206.85567,469.46937C203.84192,466.37062,203.44067,461.57687,204.79067,458.08312C206.19442,454.45312,209.80942,452.12937,214.27692,452.12937M219.71817,456.97312L213.98067,456.96812C212.17692,456.96812,208.82067,458.16437,208.82067,462.42562C208.82067,466.40812,212.17067,467.67562,213.80317,467.67562L219.62692,467.67562C221.76692,467.67562,224.74692,466.13187,224.74567,462.42562C224.74667,458.33312,221.43567,456.97437,219.71817,456.97312M275.49567,452.12937L281.65942,452.12937L288.34067,460.87187L294.60942,452.12937L300.78817,452.12937L290.67817,465.78562L290.67817,472.50312L285.88317,472.50312L285.88317,465.71812L275.49567,452.12937ZM227.10317,452.12937L233.26942,452.12937L239.94942,460.87187L246.21942,452.12937L252.39692,452.12937L242.28692,465.78562L242.28592,472.50312L237.49217,472.50312L237.49217,465.71812L227.10317,452.12937ZM253.59692,472.50312L253.59692,452.12937L267.74192,452.13037C271.23317,452.12937,274.40067,453.07537,276.15692,455.99537C277.08067,457.42287,277.69192,460.71662,276.13822,463.35537C275.52322,464.39912,274.27197,465.64412,272.52322,466.39162L278.67697,472.50287L271.62072,472.50287L266.35447,467.20662L259.03697,467.20662L261.69572,462.42537L268.54947,462.42537C270.58697,462.42537,272.11572,461.45787,272.11572,459.68662C272.11572,457.85412,270.91822,456.97037,268.73322,456.97037L258.42822,456.97037L258.42822,472.50287L253.59697,472.50287ZM179.91567,452.12937L194.14192,452.12937C196.74567,452.12937,199.77317,453.11062,201.53067,456.03062C202.45567,457.45812,203.04817,460.75312,201.49567,463.38937C200.09192,465.77062,197.47942,467.20562,194.34442,467.20562L185.31567,467.20562L187.99442,462.42437L194.56317,462.42437C196.60067,462.42437,197.78067,461.23937,197.78067,459.68687C197.78167,458.28812,196.80817,456.97062,194.77692,456.97062L184.72942,456.97062L184.72942,472.50312L179.91692,472.50312L179.91592,452.12937" fill="rgb(255,255,255)" stroke="none" stroke-width="1"/></g></g></svg>