<svg id="eLNgUm8qKDt1" xmlns="http://www.w3.org/2000/svg" xmlns:xlink="http://www.w3.org/1999/xlink" viewBox="0 0 70000 70000" shape-rendering="geometricPrecision" text-rendering="geometricPrecision"><g id="eLNgUm8qKDt2" transform="matrix(3.77665 0 0 3.77665 4786.8 19893.4)" clip-rule="evenodd"><path id="eLNgUm8qKDt3" d="M6654,820L5582,1308L5582,1847L6654,1513ZM14464,2056C14130,2056,13860,2171,13603,2415L13603,2126L12852,2126L12852,5189L13623,5189L13623,3565C13623,3141,13809,2788,14329,2788C14811,2788,14946,3141,14946,3565L14946,5189L15710,5189L15710,3327C15710,2627,15293,2056,14464,2056ZM10225,3289C10334,2910,10623,2730,10976,2730C11342,2730,11612,2890,11708,3289ZM10970,2056C10058,2056,9435,2768,9435,3642C9435,4522,10064,5228,10970,5228C11702,5228,12203,4823,12396,4233L11599,4233C11490,4419,11317,4522,11015,4522C10559,4522,10296,4290,10219,3899L12479,3899C12486,3822,12492,3764,12492,3687C12492,2627,11811,2056,10970,2056ZM8003,6467C7592,6467,7316,6166,7316,5767C7316,5369,7592,5067,8003,5067C8408,5067,8690,5369,8690,5767C8690,6166,8408,6467,8003,6467ZM8253,3751L9339,2788L9339,2126L6731,2126L6731,2839L8234,2839L7271,3680L7913,4425C7078,4477,6564,5067,6564,5774C6564,6570,7213,7180,8009,7180C8799,7180,9461,6570,9461,5774C9461,5350,9345,5035,9082,4727ZM1041,2428L1041,2126L290,2126L290,5189L1061,5189L1061,3571C1061,3147,1247,2820,1812,2820L2043,2820L2043,2088L1876,2088C1542,2088,1298,2184,1041,2428ZM5601,5189L6378,5189L6378,2017L5601,2210ZM3642,4483C3174,4483,2846,4143,2846,3642C2846,3141,3174,2794,3642,2794C4111,2794,4439,3141,4439,3642C4439,4143,4111,4483,3642,4483ZM3655,2056C2763,2056,2075,2762,2075,3642C2075,4560,2679,5228,3572,5228C3874,5228,4214,5106,4458,4849L4458,5189L5209,5189L5209,3571C5209,2730,4554,2056,3655,2056Z" clip-rule="evenodd" fill="rgb(255,255,255)" fill-rule="evenodd" stroke="none" stroke-width="1"/></g></svg>