<svg id="e7GZctsnSfC1" xmlns="http://www.w3.org/2000/svg" xmlns:xlink="http://www.w3.org/1999/xlink" viewBox="0 0 819.07045 584" shape-rendering="geometricPrecision" text-rendering="geometricPrecision"><g id="e7GZctsnSfC2" transform="matrix(1 0 0 1 218.073 89.0378)"><g id="e7GZctsnSfC3"><g id="e7GZctsnSfC4"><g id="e7GZctsnSfC5" transform="matrix(1.27711 0 0 1.27711 -53.056091 -56.242869)"><path id="e7GZctsnSfC6" d="M383.03037,563.91909C376.740795,563.898136,370.478702,563.088093,364.39082,561.50794L363.1909,561.17594L362.07781,560.61826C321.83581,540.4417,287.88581,513.79126,261.17069,481.40689C239.056145,454.442215,221.814685,423.82665,210.22153,390.93675C196.357925,351.559511,189.688171,310.010173,190.53067,268.27222C190.54767,267.39611,190.56206,266.71966,190.56206,266.25361C190.56206,245.96449,201.82406,228.16231,219.25327,220.90004C232.59274,215.34191,353.70866,165.59478,362.45959,162.00041C378.93997,153.74269,396.52159,160.63506,399.33513,161.84035C405.64607,164.4206,517.61033,210.21535,541.80575,221.73656C566.74153,233.61071,573.39465,254.94222,573.39465,265.67443C573.39465,314.26265,564.97965,359.67221,548.38336,400.64183C534.980157,433.803745,515.983567,464.418643,492.22123,491.1527C446.37446,542.74651,400.51553,561.0368,400.07295,561.198C394.592214,563.083842,388.825849,564.004524,383.03037,563.91909ZM372.24584,537.20535C376.2217,538.09673,385.37533,539.4338,391.34154,537.25735C398.92083,534.49327,437.30397,514.58935,473.1719,474.22546C522.72899,418.45646,547.87432,348.35004,547.91109,265.85369C547.82257,264.18235,546.63567,252.26181,530.84956,244.74502C507.12331,233.44669,390.746,185.86014,389.5732,185.38052L389.25166,185.24421C386.8128,184.22221,379.05111,182.06951,373.70084,184.87321L372.6296,185.37264C371.3324,185.90543,242.76643,238.71018,229.05479,244.42328C219.46311,248.41979,216.04562,258.32057,216.04562,266.25365C216.04562,266.83338,216.03062,267.67665,216.00943,268.76659C214.91358,325.21375,227.97577,464.11262,372.24584,537.20535Z" transform="matrix(1 0 0 1 -190.465 -158)" fill="rgb(63,61,86)" stroke="none" stroke-width="1"/><path id="e7GZctsnSfC7" d="M367.78865,173.58611C367.78865,173.58611,238.05415,226.86992,224.154,232.66164C210.25385,238.45336,203.30381,252.35348,203.30381,266.25364C203.30381,280.1538,192.87875,461.53177,367.78865,549.22768C367.78865,549.22768,383.66343,553.62009,395.70747,549.22768C407.75151,544.83527,560.65287,470.70126,560.65287,265.67443C560.65287,265.67443,560.65287,244.82425,536.32765,233.24081C512.00243,221.65737,394.39407,173.58611,394.39407,173.58611C394.39407,173.58611,379.95125,167.21522,367.78865,173.58611Z" transform="matrix(1 0 0 1 -190.516119 -158.051431)" fill="rgb(130,87,229)" stroke="none" stroke-width="1"/><path id="e7GZctsnSfC8" d="M381.68877,215.28648L381.68877,499.53673C381.68877,499.53673,250.79593,436.53013,251.95428,270.887Z" transform="matrix(1 0 0 1 -190.465 -158)" opacity="0.1" fill="rgb(0,0,0)" stroke="none" stroke-width="1"/><polygon id="e7GZctsnSfC9" points="192.931,261.581 151.235,207.969 175.483,189.11 195.226,214.494 261.921,144.088 284.224,165.219 192.931,261.581" fill="rgb(255,255,255)" stroke="none" stroke-width="1"/></g></g></g></g></svg>