<svg id="eUfYPjO9oI61" xmlns="http://www.w3.org/2000/svg" xmlns:xlink="http://www.w3.org/1999/xlink" viewBox="0 0 4096 4095.9999" shape-rendering="geometricPrecision" text-rendering="geometricPrecision"><defs><radialGradient id="eUfYPjO9oI67-fill" cx="0" cy="0" r="1" spreadMethod="pad" gradientUnits="userSpaceOnUse" gradientTransform="matrix(52.4704 0 0 52.4704 39.6773 766.354)"><stop id="eUfYPjO9oI67-fill-0" offset="0%" stop-color="rgb(153,202,69)"/><stop id="eUfYPjO9oI67-fill-1" offset="50%" stop-color="rgb(39,182,125)"/><stop id="eUfYPjO9oI67-fill-2" offset="100%" stop-color="rgb(0,147,104)"/></radialGradient><radialGradient id="eUfYPjO9oI629-fill" cx="0" cy="0" r="1" spreadMethod="pad" gradientUnits="userSpaceOnUse" gradientTransform="matrix(52.4704 0 0 52.4704 39.7007 766.354)"><stop id="eUfYPjO9oI629-fill-0" offset="0%" stop-color="rgb(153,202,69)"/><stop id="eUfYPjO9oI629-fill-1" offset="50%" stop-color="rgb(39,182,125)"/><stop id="eUfYPjO9oI629-fill-2" offset="100%" stop-color="rgb(0,147,104)"/></radialGradient><radialGradient id="eUfYPjO9oI651-fill" cx="0" cy="0" r="1" spreadMethod="pad" gradientUnits="userSpaceOnUse" gradientTransform="matrix(52.4704 0 0 52.4704 39.6773 766.354)"><stop id="eUfYPjO9oI651-fill-0" offset="0%" stop-color="rgb(153,202,69)"/><stop id="eUfYPjO9oI651-fill-1" offset="50%" stop-color="rgb(39,182,125)"/><stop id="eUfYPjO9oI651-fill-2" offset="100%" stop-color="rgb(0,147,104)"/></radialGradient><radialGradient id="eUfYPjO9oI656-fill" cx="0" cy="0" r="1" spreadMethod="pad" gradientUnits="userSpaceOnUse" gradientTransform="matrix(52.4704 0 0 52.4704 39.7007 766.354)"><stop id="eUfYPjO9oI656-fill-0" offset="0%" stop-color="rgb(255,255,255)"/><stop id="eUfYPjO9oI656-fill-1" offset="0%" stop-color="rgb(39,182,125)"/><stop id="eUfYPjO9oI656-fill-2" offset="0%" stop-color="rgb(0,147,104)"/><stop id="eUfYPjO9oI656-fill-3" offset="0%" stop-color="rgb(255,255,255)"/></radialGradient></defs><g id="eUfYPjO9oI62" transform="matrix(1.33333 0 0 -1.33333 0 4096)"><g id="eUfYPjO9oI63" transform="matrix(17.9221 0 0 17.9221 -520.632 -14463.6)"><g id="eUfYPjO9oI64"><g id="eUfYPjO9oI65"><g id="eUfYPjO9oI66"><path id="eUfYPjO9oI67" d="M83.066,782.573C79.987,780.427,74.658,779.842,69.894,779.33L69.894,779.33L69.865,779.269C69.914,776.522,69.608,773.779,68.956,771.108L68.956,771.108C67.799,766.458,65.55,762.192,62.279,758.433L62.279,758.433C60.864,756.814,59.307,755.326,57.626,753.988L57.626,753.988L57.626,753.972C64.656,756.175,73.147,760.288,78.602,767.906L78.602,767.906C83.99,775.431,83.497,779.87,83.08,782.573L83.08,782.573ZM52.943,772.612C49.715,768.575,48.619,762.57,49.594,754.257L49.594,754.257C49.668,753.483,49.757,752.854,49.826,752.412L49.826,752.412L49.864,752.387C53.382,754.105,67.108,761.938,67.046,779.004L67.046,779.004L67.012,779.032C60.449,778.342,55.841,776.241,52.943,772.612M85.023,773.971C84.009,771.195,82.615,768.573,80.88,766.181L80.88,766.181C75.342,758.548,67.117,754.327,61.197,752.134L61.197,752.134C59.267,751.413,57.479,750.874,55.921,750.46L55.921,750.46L55.921,750.437C56.68,750.398,57.43,750.378,58.168,750.375L58.168,750.375L58.549,750.375C62.224,750.39,65.615,750.849,68.674,751.747L68.674,751.747C72.959,753.006,76.523,755.097,79.262,757.96L79.262,757.96C83.287,762.164,85.292,767.776,85.039,773.971L85.039,773.971Z" fill="url(#eUfYPjO9oI67-fill)" stroke="none" stroke-width="1"/></g></g></g></g><g id="eUfYPjO9oI68" transform="matrix(17.9221 0 0 17.9221 -520.632 -14463.6)"><g id="eUfYPjO9oI69" clip-path="url(#eUfYPjO9oI623)"><g id="eUfYPjO9oI610"><g id="eUfYPjO9oI611" transform="matrix(1 0 0 1 103.544 767.53)"><path id="eUfYPjO9oI612" d="M0,0C-0.937,0.641,-2.825,1.374,-4.777,1.374C-6.807,1.374,-8.115,0.516,-8.115,-0.827C-8.115,-2.013,-7.038,-2.558,-5.243,-2.779L-3.525,-2.997C-0.372,-3.419,1.485,-4.746,1.485,-7.202C1.485,-10.027,-1.044,-11.854,-5.087,-11.854C-6.913,-11.854,-9.38,-11.417,-11.332,-9.949L-10.145,-8.045C-9.032,-8.903,-7.554,-9.622,-5.075,-9.622C-2.64,-9.622,-1.141,-8.825,-1.141,-7.357C-1.141,-6.264,-2.108,-5.578,-4.123,-5.328L-5.84,-5.125C-9.159,-4.715,-10.766,-3.216,-10.766,-0.968C-10.766,1.876,-8.41,3.591,-4.804,3.591C-2.462,3.591,-0.323,2.973,1.113,1.983Z" fill="rgb(3,78,162)" stroke="none" stroke-width="1"/></g><g id="eUfYPjO9oI613" transform="matrix(1 0 0 1 120.575 762.206)"><path id="eUfYPjO9oI614" d="M0,0C0,-4.48,-3.215,-6.525,-6.759,-6.525C-10.334,-6.525,-13.535,-4.48,-13.535,0L-13.535,8.62L-10.974,8.62L-10.974,0.236C-10.974,-2.792,-9.179,-4.135,-6.759,-4.135C-4.339,-4.135,-2.555,-2.792,-2.555,0.236L-2.555,8.62L0.005,8.62Z" fill="rgb(3,78,162)" stroke="none" stroke-width="1"/></g><g id="eUfYPjO9oI615" transform="matrix(1 0 0 1 135.656 768.972)"><path id="eUfYPjO9oI616" d="M0,0L-9.133,-10.668L0.141,-10.668L0.141,-12.984L-12.521,-12.984L-12.521,-11.129L-3.279,-0.482L-12.255,-0.482L-12.255,1.855L0,1.855Z" fill="rgb(3,78,162)" stroke="none" stroke-width="1"/></g><g id="eUfYPjO9oI617" transform="matrix(1 0 0 1 139.62 763.407)"><path id="eUfYPjO9oI618" d="M0,0C0,-2.95,2.061,-5.339,5.104,-5.339C8.102,-5.339,10.194,-3.044,10.194,0C10.194,3.044,8.102,5.323,5.104,5.323C2.014,5.325,0,2.952,0,0M12.598,-7.419L10.038,-7.419L10.038,-5.441C8.867,-6.831,7.135,-7.736,4.809,-7.736C0.641,-7.736,-2.61,-4.489,-2.61,-0.009C-2.61,4.471,0.637,7.72,4.809,7.72C7.135,7.72,8.867,6.813,10.038,5.409L10.038,7.419L12.598,7.419Z" fill="rgb(3,78,162)" stroke="none" stroke-width="1"/></g><g id="eUfYPjO9oI619" transform="matrix(1 0 0 1 169.312 765.204)"><path id="eUfYPjO9oI620" d="M0,0L0,-9.216L-2.56,-9.216L-2.56,-0.832C-2.56,1.899,-4.058,3.508,-6.64,3.508C-9.029,3.508,-11.028,1.868,-11.028,-0.895L-11.028,-9.216L-13.566,-9.216L-13.566,5.623L-11.038,5.623L-11.038,3.687C-9.819,5.358,-7.899,5.935,-6.181,5.935C-2.529,5.933,0,3.56,0,0" fill="rgb(3,78,162)" stroke="none" stroke-width="1"/></g><g id="eUfYPjO9oI621" transform="matrix(1 0 0 1 174.167 763.407)"><path id="eUfYPjO9oI622" d="M0,0C0,-3.106,2.248,-5.339,5.229,-5.339C8.211,-5.339,10.46,-3.106,10.46,0C10.46,3.106,8.196,5.323,5.229,5.323C2.263,5.323,0,3.109,0,0M13.083,0C13.083,-4.402,9.727,-7.727,5.229,-7.727C0.732,-7.727,-2.607,-4.401,-2.607,0C-2.607,4.401,0.732,7.728,5.229,7.728C9.727,7.728,13.083,4.403,13.083,0" fill="rgb(3,78,162)" stroke="none" stroke-width="1"/></g></g><clipPath id="eUfYPjO9oI623"><path id="eUfYPjO9oI624" d="M49.251,750.375L187.25,750.375L187.25,782.573L49.251,782.573Z" fill="rgb(0,0,0)" stroke="none" stroke-width="1"/></clipPath></g></g><g id="eUfYPjO9oI625" transform="matrix(17.9221 0 0 17.9221 -520.632 -14463.6)"><g id="eUfYPjO9oI626"><g id="eUfYPjO9oI627"><g id="eUfYPjO9oI628"><path id="eUfYPjO9oI629" d="M83.09,782.573C80.01,780.427,74.681,779.842,69.917,779.33L69.917,779.33L69.889,779.269C69.937,776.522,69.631,773.779,68.98,771.108L68.98,771.108C67.822,766.458,65.573,762.192,62.303,758.433L62.303,758.433C60.888,756.814,59.331,755.326,57.65,753.988L57.65,753.988L57.65,753.972C64.679,756.175,73.17,760.288,78.626,767.906L78.626,767.906C84.014,775.431,83.52,779.87,83.103,782.573L83.103,782.573ZM52.967,772.612C49.739,768.575,48.642,762.57,49.618,754.257L49.618,754.257C49.692,753.483,49.78,752.854,49.849,752.412L49.849,752.412L49.887,752.387C53.405,754.105,67.131,761.938,67.069,779.004L67.069,779.004L67.036,779.032C60.472,778.342,55.865,776.241,52.967,772.612M85.046,773.971C84.032,771.195,82.638,768.573,80.904,766.181L80.904,766.181C75.365,758.548,67.14,754.327,61.221,752.134L61.221,752.134C59.29,751.413,57.502,750.874,55.944,750.46L55.944,750.46L55.944,750.437C56.704,750.398,57.453,750.378,58.191,750.375L58.191,750.375L58.572,750.375C62.248,750.39,65.638,750.849,68.698,751.747L68.698,751.747C72.983,753.006,76.546,755.097,79.286,757.96L79.286,757.96C83.31,762.164,85.316,767.776,85.063,773.971L85.063,773.971Z" fill="url(#eUfYPjO9oI629-fill)" stroke="none" stroke-width="1"/></g></g></g></g><g id="eUfYPjO9oI630" transform="matrix(17.9221 0 0 17.9221 -520.632 -14463.6)"><g id="eUfYPjO9oI631" clip-path="url(#eUfYPjO9oI645)"><g id="eUfYPjO9oI632"><g id="eUfYPjO9oI633" transform="matrix(1 0 0 1 103.567 767.53)"><path id="eUfYPjO9oI634" d="M0,0C-0.937,0.641,-2.825,1.374,-4.777,1.374C-6.807,1.374,-8.115,0.516,-8.115,-0.827C-8.115,-2.013,-7.038,-2.558,-5.243,-2.779L-3.525,-2.997C-0.372,-3.419,1.485,-4.746,1.485,-7.202C1.485,-10.027,-1.044,-11.854,-5.087,-11.854C-6.913,-11.854,-9.38,-11.417,-11.332,-9.949L-10.145,-8.045C-9.032,-8.903,-7.554,-9.622,-5.075,-9.622C-2.64,-9.622,-1.141,-8.825,-1.141,-7.357C-1.141,-6.264,-2.108,-5.578,-4.123,-5.328L-5.84,-5.125C-9.159,-4.715,-10.766,-3.216,-10.766,-0.968C-10.766,1.876,-8.41,3.591,-4.804,3.591C-2.462,3.591,-0.323,2.973,1.113,1.983Z" fill="rgb(3,78,162)" stroke="none" stroke-width="1"/></g><g id="eUfYPjO9oI635" transform="matrix(1 0 0 1 120.598 762.206)"><path id="eUfYPjO9oI636" d="M0,0C0,-4.48,-3.215,-6.525,-6.759,-6.525C-10.334,-6.525,-13.535,-4.48,-13.535,0L-13.535,8.62L-10.974,8.62L-10.974,0.236C-10.974,-2.792,-9.179,-4.135,-6.759,-4.135C-4.339,-4.135,-2.555,-2.792,-2.555,0.236L-2.555,8.62L0.005,8.62Z" fill="rgb(3,78,162)" stroke="none" stroke-width="1"/></g><g id="eUfYPjO9oI637" transform="matrix(1 0 0 1 135.679 768.972)"><path id="eUfYPjO9oI638" d="M0,0L-9.133,-10.668L0.141,-10.668L0.141,-12.984L-12.521,-12.984L-12.521,-11.129L-3.279,-0.482L-12.255,-0.482L-12.255,1.855L0,1.855Z" fill="rgb(3,78,162)" stroke="none" stroke-width="1"/></g><g id="eUfYPjO9oI639" transform="matrix(1 0 0 1 139.643 763.407)"><path id="eUfYPjO9oI640" d="M0,0C0,-2.95,2.061,-5.339,5.104,-5.339C8.102,-5.339,10.194,-3.044,10.194,0C10.194,3.044,8.102,5.323,5.104,5.323C2.014,5.325,0,2.952,0,0M12.598,-7.419L10.038,-7.419L10.038,-5.441C8.867,-6.831,7.135,-7.736,4.809,-7.736C0.641,-7.736,-2.61,-4.489,-2.61,-0.009C-2.61,4.471,0.637,7.72,4.809,7.72C7.135,7.72,8.867,6.813,10.038,5.409L10.038,7.419L12.598,7.419Z" fill="rgb(3,78,162)" stroke="none" stroke-width="1"/></g><g id="eUfYPjO9oI641" transform="matrix(1 0 0 1 169.335 765.204)"><path id="eUfYPjO9oI642" d="M0,0L0,-9.216L-2.56,-9.216L-2.56,-0.832C-2.56,1.899,-4.058,3.508,-6.64,3.508C-9.029,3.508,-11.028,1.868,-11.028,-0.895L-11.028,-9.216L-13.566,-9.216L-13.566,5.623L-11.038,5.623L-11.038,3.687C-9.819,5.358,-7.899,5.935,-6.181,5.935C-2.529,5.933,0,3.56,0,0" fill="rgb(3,78,162)" stroke="none" stroke-width="1"/></g><g id="eUfYPjO9oI643" transform="matrix(1 0 0 1 174.19 763.407)"><path id="eUfYPjO9oI644" d="M0,0C0,-3.106,2.248,-5.339,5.229,-5.339C8.211,-5.339,10.46,-3.106,10.46,0C10.46,3.106,8.196,5.323,5.229,5.323C2.263,5.323,0,3.109,0,0M13.083,0C13.083,-4.402,9.727,-7.727,5.229,-7.727C0.732,-7.727,-2.607,-4.401,-2.607,0C-2.607,4.401,0.732,7.728,5.229,7.728C9.727,7.728,13.083,4.403,13.083,0" fill="rgb(3,78,162)" stroke="none" stroke-width="1"/></g></g><clipPath id="eUfYPjO9oI645"><path id="eUfYPjO9oI646" d="M49.274,750.375L187.273,750.375L187.273,782.573L49.274,782.573Z" fill="rgb(0,0,0)" stroke="none" stroke-width="1"/></clipPath></g></g><g id="eUfYPjO9oI647" transform="matrix(22.9989 0 0 22.9989 -16.029 -15826.5)"><g id="eUfYPjO9oI648"><g id="eUfYPjO9oI649"><g id="eUfYPjO9oI650"><path id="eUfYPjO9oI651" d="M83.066,782.573C79.987,780.427,74.658,779.842,69.894,779.33L69.894,779.33L69.865,779.269C69.914,776.522,69.608,773.779,68.956,771.108L68.956,771.108C67.799,766.458,65.55,762.192,62.279,758.433L62.279,758.433C60.864,756.814,59.307,755.326,57.626,753.988L57.626,753.988L57.626,753.972C64.656,756.175,73.147,760.288,78.602,767.906L78.602,767.906C83.99,775.431,83.497,779.87,83.08,782.573L83.08,782.573ZM52.943,772.612C49.715,768.575,48.619,762.57,49.594,754.257L49.594,754.257C49.668,753.483,49.757,752.854,49.826,752.412L49.826,752.412L49.864,752.387C53.382,754.105,67.108,761.938,67.046,779.004L67.046,779.004L67.012,779.032C60.449,778.342,55.841,776.241,52.943,772.612M85.023,773.971C84.009,771.195,82.615,768.573,80.88,766.181L80.88,766.181C75.342,758.548,67.117,754.327,61.197,752.134L61.197,752.134C59.267,751.413,57.479,750.874,55.921,750.46L55.921,750.46L55.921,750.437C56.68,750.398,57.43,750.378,58.168,750.375L58.168,750.375L58.549,750.375C62.224,750.39,65.615,750.849,68.674,751.747L68.674,751.747C72.959,753.006,76.523,755.097,79.262,757.96L79.262,757.96C83.287,762.164,85.292,767.776,85.039,773.971L85.039,773.971Z" fill="url(#eUfYPjO9oI651-fill)" stroke="none" stroke-width="1"/></g></g></g></g><g id="eUfYPjO9oI652" transform="matrix(22.9989 0 0 22.9989 -16.029 -15826.5)"><g id="eUfYPjO9oI653"><g id="eUfYPjO9oI654"><g id="eUfYPjO9oI655"><path id="eUfYPjO9oI656" d="M83.09,782.573C80.01,780.427,74.681,779.842,69.917,779.33L69.917,779.33L69.889,779.269C69.937,776.522,69.631,773.779,68.98,771.108L68.98,771.108C67.822,766.458,65.573,762.192,62.303,758.433L62.303,758.433C60.888,756.814,59.331,755.326,57.65,753.988L57.65,753.988L57.65,753.972C64.679,756.175,73.17,760.288,78.626,767.906L78.626,767.906C84.014,775.431,83.52,779.87,83.103,782.573L83.103,782.573ZM52.967,772.612C49.739,768.575,48.642,762.57,49.618,754.257L49.618,754.257C49.692,753.483,49.78,752.854,49.849,752.412L49.849,752.412L49.887,752.387C53.405,754.105,67.131,761.938,67.069,779.004L67.069,779.004L67.036,779.032C60.472,778.342,55.865,776.241,52.967,772.612M85.046,773.971C84.032,771.195,82.638,768.573,80.904,766.181L80.904,766.181C75.365,758.548,67.14,754.327,61.221,752.134L61.221,752.134C59.29,751.413,57.502,750.874,55.944,750.46L55.944,750.46L55.944,750.437C56.704,750.398,57.453,750.378,58.191,750.375L58.191,750.375L58.572,750.375C62.248,750.39,65.638,750.849,68.698,751.747L68.698,751.747C72.983,753.006,76.546,755.097,79.286,757.96L79.286,757.96C83.31,762.164,85.316,767.776,85.063,773.971L85.063,773.971Z" fill="url(#eUfYPjO9oI656-fill)" stroke="none" stroke-width="1"/></g></g></g></g><g id="eUfYPjO9oI657" transform="matrix(23.0875 0 0 23.0875 -1690.03 -16546.4)"><g id="eUfYPjO9oI658" clip-path="url(#eUfYPjO9oI672)"><g id="eUfYPjO9oI659"><g id="eUfYPjO9oI660" transform="matrix(1 0 0 1 103.544 767.53)"><path id="eUfYPjO9oI661" d="M0,0C-0.937,0.641,-2.825,1.374,-4.777,1.374C-6.807,1.374,-8.115,0.516,-8.115,-0.827C-8.115,-2.013,-7.038,-2.558,-5.243,-2.779L-3.525,-2.997C-0.372,-3.419,1.485,-4.746,1.485,-7.202C1.485,-10.027,-1.044,-11.854,-5.087,-11.854C-6.913,-11.854,-9.38,-11.417,-11.332,-9.949L-10.145,-8.045C-9.032,-8.903,-7.554,-9.622,-5.075,-9.622C-2.64,-9.622,-1.141,-8.825,-1.141,-7.357C-1.141,-6.264,-2.108,-5.578,-4.123,-5.328L-5.84,-5.125C-9.159,-4.715,-10.766,-3.216,-10.766,-0.968C-10.766,1.876,-8.41,3.591,-4.804,3.591C-2.462,3.591,-0.323,2.973,1.113,1.983Z" fill="rgb(255,255,255)" stroke="none" stroke-width="1"/></g><g id="eUfYPjO9oI662" transform="matrix(1 0 0 1 120.575 762.206)"><path id="eUfYPjO9oI663" d="M0,0C0,-4.48,-3.215,-6.525,-6.759,-6.525C-10.334,-6.525,-13.535,-4.48,-13.535,0L-13.535,8.62L-10.974,8.62L-10.974,0.236C-10.974,-2.792,-9.179,-4.135,-6.759,-4.135C-4.339,-4.135,-2.555,-2.792,-2.555,0.236L-2.555,8.62L0.005,8.62Z" fill="rgb(255,255,255)" stroke="none" stroke-width="1"/></g><g id="eUfYPjO9oI664" transform="matrix(1 0 0 1 135.656 768.972)"><path id="eUfYPjO9oI665" d="M0,0L-9.133,-10.668L0.141,-10.668L0.141,-12.984L-12.521,-12.984L-12.521,-11.129L-3.279,-0.482L-12.255,-0.482L-12.255,1.855L0,1.855Z" fill="rgb(255,255,255)" stroke="none" stroke-width="1"/></g><g id="eUfYPjO9oI666" transform="matrix(1 0 0 1 139.62 763.407)"><path id="eUfYPjO9oI667" d="M0,0C0,-2.95,2.061,-5.339,5.104,-5.339C8.102,-5.339,10.194,-3.044,10.194,0C10.194,3.044,8.102,5.323,5.104,5.323C2.014,5.325,0,2.952,0,0M12.598,-7.419L10.038,-7.419L10.038,-5.441C8.867,-6.831,7.135,-7.736,4.809,-7.736C0.641,-7.736,-2.61,-4.489,-2.61,-0.009C-2.61,4.471,0.637,7.72,4.809,7.72C7.135,7.72,8.867,6.813,10.038,5.409L10.038,7.419L12.598,7.419Z" fill="rgb(255,255,255)" stroke="none" stroke-width="1"/></g><g id="eUfYPjO9oI668" transform="matrix(1 0 0 1 169.312 765.204)"><path id="eUfYPjO9oI669" d="M0,0L0,-9.216L-2.56,-9.216L-2.56,-0.832C-2.56,1.899,-4.058,3.508,-6.64,3.508C-9.029,3.508,-11.028,1.868,-11.028,-0.895L-11.028,-9.216L-13.566,-9.216L-13.566,5.623L-11.038,5.623L-11.038,3.687C-9.819,5.358,-7.899,5.935,-6.181,5.935C-2.529,5.933,0,3.56,0,0" fill="rgb(255,255,255)" stroke="none" stroke-width="1"/></g><g id="eUfYPjO9oI670" transform="matrix(1 0 0 1 174.167 763.407)"><path id="eUfYPjO9oI671" d="M0,0C0,-3.106,2.248,-5.339,5.229,-5.339C8.211,-5.339,10.46,-3.106,10.46,0C10.46,3.106,8.196,5.323,5.229,5.323C2.263,5.323,0,3.109,0,0M13.083,0C13.083,-4.402,9.727,-7.727,5.229,-7.727C0.732,-7.727,-2.607,-4.401,-2.607,0C-2.607,4.401,0.732,7.728,5.229,7.728C9.727,7.728,13.083,4.403,13.083,0" fill="rgb(255,255,255)" stroke="none" stroke-width="1"/></g></g><clipPath id="eUfYPjO9oI672"><path id="eUfYPjO9oI673" d="M49.251,750.375L187.25,750.375L187.25,782.573L49.251,782.573Z" fill="rgb(255,255,255)" stroke="none" stroke-width="1"/></clipPath></g></g><g id="eUfYPjO9oI674" transform="matrix(23.0875 0 0 23.0875 -1690.57 -16546.4)"><g id="eUfYPjO9oI675" clip-path="url(#eUfYPjO9oI689)"><g id="eUfYPjO9oI676"><g id="eUfYPjO9oI677" transform="matrix(1 0 0 1 103.567 767.53)"><path id="eUfYPjO9oI678" d="M0,0C-0.937,0.641,-2.825,1.374,-4.777,1.374C-6.807,1.374,-8.115,0.516,-8.115,-0.827C-8.115,-2.013,-7.038,-2.558,-5.243,-2.779L-3.525,-2.997C-0.372,-3.419,1.485,-4.746,1.485,-7.202C1.485,-10.027,-1.044,-11.854,-5.087,-11.854C-6.913,-11.854,-9.38,-11.417,-11.332,-9.949L-10.145,-8.045C-9.032,-8.903,-7.554,-9.622,-5.075,-9.622C-2.64,-9.622,-1.141,-8.825,-1.141,-7.357C-1.141,-6.264,-2.108,-5.578,-4.123,-5.328L-5.84,-5.125C-9.159,-4.715,-10.766,-3.216,-10.766,-0.968C-10.766,1.876,-8.41,3.591,-4.804,3.591C-2.462,3.591,-0.323,2.973,1.113,1.983Z" fill="rgb(255,255,255)" stroke="none" stroke-width="1"/></g><g id="eUfYPjO9oI679" transform="matrix(1 0 0 1 120.598 762.206)"><path id="eUfYPjO9oI680" d="M0,0C0,-4.48,-3.215,-6.525,-6.759,-6.525C-10.334,-6.525,-13.535,-4.48,-13.535,0L-13.535,8.62L-10.974,8.62L-10.974,0.236C-10.974,-2.792,-9.179,-4.135,-6.759,-4.135C-4.339,-4.135,-2.555,-2.792,-2.555,0.236L-2.555,8.62L0.005,8.62Z" fill="rgb(255,255,255)" stroke="none" stroke-width="1"/></g><g id="eUfYPjO9oI681" transform="matrix(1 0 0 1 135.679 768.972)"><path id="eUfYPjO9oI682" d="M0,0L-9.133,-10.668L0.141,-10.668L0.141,-12.984L-12.521,-12.984L-12.521,-11.129L-3.279,-0.482L-12.255,-0.482L-12.255,1.855L0,1.855Z" fill="rgb(255,255,255)" stroke="none" stroke-width="1"/></g><g id="eUfYPjO9oI683" transform="matrix(1 0 0 1 139.643 763.407)"><path id="eUfYPjO9oI684" d="M0,0C0,-2.95,2.061,-5.339,5.104,-5.339C8.102,-5.339,10.194,-3.044,10.194,0C10.194,3.044,8.102,5.323,5.104,5.323C2.014,5.325,0,2.952,0,0M12.598,-7.419L10.038,-7.419L10.038,-5.441C8.867,-6.831,7.135,-7.736,4.809,-7.736C0.641,-7.736,-2.61,-4.489,-2.61,-0.009C-2.61,4.471,0.637,7.72,4.809,7.72C7.135,7.72,8.867,6.813,10.038,5.409L10.038,7.419L12.598,7.419Z" fill="rgb(255,255,255)" stroke="none" stroke-width="1"/></g><g id="eUfYPjO9oI685" transform="matrix(1 0 0 1 169.335 765.204)"><path id="eUfYPjO9oI686" d="M0,0L0,-9.216L-2.56,-9.216L-2.56,-0.832C-2.56,1.899,-4.058,3.508,-6.64,3.508C-9.029,3.508,-11.028,1.868,-11.028,-0.895L-11.028,-9.216L-13.566,-9.216L-13.566,5.623L-11.038,5.623L-11.038,3.687C-9.819,5.358,-7.899,5.935,-6.181,5.935C-2.529,5.933,0,3.56,0,0" fill="rgb(255,255,255)" stroke="none" stroke-width="1"/></g><g id="eUfYPjO9oI687" transform="matrix(1 0 0 1 174.19 763.407)"><path id="eUfYPjO9oI688" d="M0,0C0,-3.106,2.248,-5.339,5.229,-5.339C8.211,-5.339,10.46,-3.106,10.46,0C10.46,3.106,8.196,5.323,5.229,5.323C2.263,5.323,0,3.109,0,0M13.083,0C13.083,-4.402,9.727,-7.727,5.229,-7.727C0.732,-7.727,-2.607,-4.401,-2.607,0C-2.607,4.401,0.732,7.728,5.229,7.728C9.727,7.728,13.083,4.403,13.083,0" fill="rgb(255,255,255)" stroke="none" stroke-width="1"/></g></g><clipPath id="eUfYPjO9oI689"><path id="eUfYPjO9oI690" d="M49.274,750.375L187.273,750.375L187.273,782.573L49.274,782.573Z" fill="rgb(255,255,255)" stroke="none" stroke-width="1"/></clipPath></g></g></g></svg>