<svg id="ePpDFl38nAf1" xmlns="http://www.w3.org/2000/svg" xmlns:xlink="http://www.w3.org/1999/xlink" viewBox="-0.961088 -0.961088 143.655175 33.958426" shape-rendering="geometricPrecision" text-rendering="geometricPrecision"><path id="ePpDFl38nAf2" d="M132.25425,31.34087L132.25425,20.21962L124.3555,20.21962L124.3555,31.34087L114.87675,31.34087L114.87675,0.63087L124.3555,0.63087L124.3555,11.12087L132.25425,11.12087L132.25425,0.63087L141.733,0.63087L141.733,31.34087L132.25425,31.34087ZM102.68275,9.73037L102.68275,31.34037L93.20275,31.34037L93.20275,9.73037L86.75775,9.73037L86.75775,0.63037L109.12775,0.63037L109.12775,9.73037L102.68275,9.73037ZM71.52975,0.63087L76.25975,0.63087L81.00975,0.63087L81.00975,31.34087L71.52975,31.34087L71.52975,0.63087ZM57.12225,15.98625C57.12225,20.03,53.901,23.31625,49.856,23.31625C45.81225,23.31625,42.526,20.03,42.526,15.98625C42.526,11.9425,45.81225,8.72,49.856,8.72C53.901,8.72,57.12225,11.9425,57.12225,15.98625M65.84475,15.98625C65.84475,7.14,58.7035,0,49.856,0C41.00975,0,33.806,7.14,33.806,15.98625C33.806,24.8325,41.00975,32.03625,49.856,32.03625C58.7035,32.03625,65.84475,24.8325,65.84475,15.98625M23.1275,0.63087L16.80875,17.81962L10.48875,0.63087L0,0.63087L13.2075,31.34087L20.3475,31.34087L33.6175,0.63087L23.1275,0.63087Z" fill="rgb(255,255,255)" stroke="none" stroke-width="1"/></svg>